
<svg width="240px" height="240px" viewBox="0 0 240 240"  version="1.1"
     xmlns="http://www.w3.org/2000/svg"

>
    <title>costume.11</title>
    <desc>Created with Sketc.h</desc>
    <g id="Page-1" stroke="none" stroke-width="1" fill="none" fill-rule="evenodd">
        <g id="costume1">
            <path d="M38.5690746,111.211579 C38.359594,111.669316 38.1295761,112.055211 38.0104597,112.471895 C37.7003463,113.520789 37.9344716,114.528632 38.3637015,115.497474 C38.9223164,116.749579 39.8875701,117.652737 41.0048,118.399895 C44.4776597,120.731684 48.2976,121.733368 52.4666746,121.349526 C53.4812179,121.257158 54.4711164,120.984158 55.3295761,120.397105 C56.2147343,119.791579 56.7178985,118.958211 56.6501254,117.864158 C56.6254806,117.502895 56.5289552,117.147789 56.4118925,116.805 C55.8224716,115.074632 55.0666985,113.416105 54.2595821,111.776053 C54.2082388,111.673421 54.1548418,111.572842 54.0850149,111.478421 C53.7502567,111.006316 53.411391,110.979632 52.9924299,111.394263 C52.6843701,111.700105 52.4831045,112.057263 52.3701493,112.478053 C52.1894209,113.136947 51.5630328,113.541316 50.8483343,113.362737 C50.4396418,113.264211 50.0165731,113.206737 49.6222567,113.071263 C48.3489433,112.644316 47.0838448,112.190684 45.8208,111.745263 C45.7037373,111.702158 45.5928358,111.630316 45.461397,111.566684 C45.5065791,111.386053 45.5435463,111.238263 45.5743522,111.092526 C45.851606,109.951263 45.6503403,108.892105 45.0239522,107.896579 C44.5166806,107.094 43.9519045,106.344789 43.2413134,105.716684 C41.7646806,104.405053 40.0600836,103.641474 38.0535881,103.748211 C36.4147104,103.834421 35.6404537,104.854579 35.6425075,106.203158 C35.6425075,106.907211 35.8129672,107.564053 36.0861134,108.190105 C35.6568836,108.783316 34.9319164,109.068632 34.621803,109.813737 C34.8312836,109.926632 34.9996896,110.068263 35.1886328,110.109316 C35.7677851,110.222211 36.3551522,110.347421 36.9425194,110.378211 C37.6325731,110.409 38.146006,110.702526 38.5690746,111.211579 M125.604155,133.213737 C125.392621,133.121368 125.291988,133.070053 125.185194,133.033105 C121.465887,131.651684 117.880072,130.007526 114.569457,127.805053 C114.431857,127.714737 114.259343,127.647 114.095045,127.626474 C113.579558,127.569 113.062018,127.538211 112.546531,127.497158 C111.495021,127.415053 110.441457,127.330895 109.392,127.236474 C107.864024,127.101 106.333994,126.949105 104.806018,126.817737 C103.259558,126.680211 101.708991,126.565263 100.158424,126.435947 C98.437397,126.290211 96.7184239,126.136263 94.9994507,125.978211 C94.3874388,125.928947 93.7795343,125.853 93.1695761,125.799632 C92.5472955,125.744211 91.9250149,125.705211 91.2185313,125.658 C93.5618388,130.760842 95.8640716,135.775421 98.1888955,140.833105 C107.323893,138.294 116.401385,135.771316 125.604155,133.213737 M120.393839,124.695316 C120.615642,124.820526 120.810746,124.937526 121.014066,125.042211 C124.936693,127.066105 129.064693,128.535789 133.324131,129.666789 C136.661445,130.555579 140.035725,131.253474 143.471618,131.643474 C145.35489,131.852842 147.246376,132.105316 149.137863,132.171 C152.304716,132.288 155.475678,132.288 158.634316,131.883632 C160.712693,131.618842 162.768478,131.261684 164.779081,130.686947 C167.434555,129.929526 169.960645,128.872421 172.207427,127.236474 C173.295904,126.446211 174.351522,125.606684 175.166854,124.518789 C177.165134,121.850368 178.861516,118.991053 180.309397,115.990105 C184.531869,107.227421 186.448,97.968 186.240573,88.2549474 C186.191284,85.9457368 186.031093,83.6488421 185.753839,81.3581053 C185.343093,77.9815263 184.683845,74.6501053 183.823331,71.3576842 C182.229636,65.3003684 179.968478,59.4955263 177.197994,53.8815789 C174.154364,47.7154737 170.652752,41.8244211 166.424119,36.3890526 C162.684275,31.5817895 158.467964,27.2589474 153.567761,23.6196316 C145.638304,17.7265263 136.770293,14.2801579 126.895952,13.5473684 C124.922316,13.4016316 122.944573,13.3585263 120.958615,13.4857895 C119.021946,13.6068947 117.093493,13.7731579 115.179415,14.0831053 C112.542424,14.5038947 109.952669,15.1073684 107.434794,16.0207895 C107.079499,16.1480526 106.687236,16.2753158 106.317564,16.2547895 C105.009337,16.1829474 104.056406,15.5076316 103.653875,14.3150526 C103.156872,12.8227895 102.312788,11.5624737 101.253063,10.4212105 C98.1580896,7.10005263 92.0133254,4.83189474 86.9262328,5.92594737 C85.5851463,6.21536842 84.2933493,6.65463158 83.1884418,7.50442105 C82.812609,7.79384211 82.4675821,8.13868421 82.169791,8.51021053 C81.7077015,9.09110526 81.6666269,9.75410526 82.0219224,10.4027368 C82.2334567,10.7845263 82.4942806,11.154 82.7838567,11.4803684 C83.5950806,12.3978947 84.5952478,13.0855263 85.6508657,13.6848947 C86.4045851,14.1138947 87.1993791,14.4587368 87.9448836,14.8938947 C88.9922866,15.5014737 89.4790209,16.458 89.3516896,17.6526316 C89.2264119,18.7959474 88.583594,19.5903158 87.4889552,20.007 C86.6325493,20.3354211 85.8500776,20.1424737 85.0470687,19.7914737 C82.0999642,18.5085789 79.0193672,17.8743158 75.7991164,18.0385263 C75.236394,18.0672632 74.6695642,18.2561053 74.1335403,18.4490526 C73.7453851,18.5886316 73.6796657,18.9888947 73.9343284,19.2967895 C74.0431761,19.4281579 74.1766687,19.5554211 74.326591,19.6313684 C74.9427104,19.9392632 75.5465075,20.2841053 76.1954866,20.5098947 C78.1403701,21.1975263 80.1653493,21.5218421 82.2149731,21.6901579 C82.5784836,21.7168421 82.9440478,21.7599474 83.2911284,21.8605263 C84.3980896,22.1807368 85.1826149,23.1536842 85.2996776,24.2887895 C85.4167403,25.4608421 84.8211582,26.5528421 83.6998209,27.1193684 C79.6704,29.1453158 76.5425672,32.1421579 74.1684537,35.9415789 C70.5764776,41.6971579 68.9745672,48.0767368 68.3666627,54.756 C68.2680836,55.8438947 68.2680836,56.9441053 68.2208478,58.0381579 C68.1551284,59.4832105 67.1159403,60.6593684 65.7666388,60.8194737 C65.1566806,60.8892632 64.5446687,60.9487895 63.9408716,61.0514211 C61.6509612,61.4373158 59.4760597,62.1639474 57.4818866,63.3729474 C53.7194507,65.6513684 52.097003,69.0895263 52.1133094,73.3815789 C52.1175403,74.6870526 52.2818388,75.9843158 52.5365015,77.2713158 C53.0519881,79.8925263 54.2739582,82.0908947 56.331797,83.8171579 C57.7796776,85.0302632 59.4267701,85.8882632 61.1950328,86.5163684 C64.1914269,87.5714211 67.2864,88.0599474 70.4573612,88.0168421 C71.6423642,88.0024737 72.950591,88.7393684 73.3305313,90.1536316 C73.4106269,90.4471579 73.5441194,90.7283684 73.6796657,91.0034211 C78.2923463,100.402421 82.9050269,109.799368 87.5094925,119.198368 C87.673791,119.535 87.8935403,119.701263 88.2447284,119.725895 C88.8793313,119.773105 89.5098269,119.816211 90.1403224,119.867526 C91.1548657,119.947579 92.169409,120.027632 93.1839522,120.115895 C94.3853851,120.218526 95.5868179,120.333474 96.7923582,120.444316 C97.8048478,120.528474 98.819391,120.606474 99.8298269,120.698842 C100.940896,120.795316 102.047857,120.908211 103.154818,121.008789 C104.356251,121.119632 105.559737,121.230474 106.76117,121.335158 C107.247904,121.374158 107.736693,121.394684 108.213158,121.423421 C108.223427,121.357737 108.235749,121.337211 108.231642,121.324895 C108.145385,121.131947 108.055021,120.936947 107.974925,120.744 C106.89877,118.233632 106.962436,115.764316 108.30763,113.375053 C109.494687,111.260842 111.004179,109.399105 112.86486,107.835 C115.797588,105.367737 119.21089,104.066368 122.993863,103.729737 C124.043319,103.639421 125.096884,103.602474 126.158663,103.670211 C127.867367,103.776947 129.559642,103.974 131.225218,104.370158 C133.050985,104.799158 134.854161,105.318474 136.68609,105.722842 C138.277731,106.073842 139.883749,106.344789 141.491821,106.591105 C142.440645,106.736842 143.401791,106.745053 144.356776,106.847684 C145.650627,106.977 146.932155,106.86 148.197254,106.662947 C150.150352,106.355053 151.912454,105.622263 153.370603,104.222368 C154.056549,103.563474 154.927331,103.358211 155.88437,103.586053 C157.929887,104.066368 158.769863,106.531579 157.424669,108.149053 C157.239833,108.370737 157.026245,108.567789 156.810603,108.758684 C154.031904,111.238263 150.682269,112.266632 147.051272,112.496526 C144.551881,112.650474 142.062758,112.488316 139.588012,112.071632 C137.487045,111.716526 135.3984,111.318316 133.342615,110.751789 C130.993146,110.109316 128.63957,109.516105 126.191522,109.356 C124.815522,109.261579 123.462113,109.329316 122.121027,109.573579 C118.091606,110.308421 115.277994,112.703842 113.26123,116.154316 C112.88129,116.809105 112.823785,117.488526 113.084609,118.204895 C113.34954,118.941789 113.784931,119.569895 114.286042,120.156947 C115.134233,121.140158 116.124131,121.963263 117.173588,122.714526 C117.294758,122.798684 117.426197,122.862316 117.567904,122.946474 C117.689075,122.722737 117.789707,122.540053 117.89034,122.357368 C118.492084,121.271526 119.223212,120.288316 120.114531,119.422105 C122.1888,117.408474 124.706675,116.408842 127.561361,116.189211 C128.448573,116.119421 129.249528,116.815263 129.315248,117.669158 C129.383021,118.621579 128.775116,119.352316 127.828346,119.448789 C127.602436,119.469316 127.372418,119.512421 127.144454,119.541158 C125.345385,119.732053 123.786603,120.460737 122.474269,121.702579 C121.58911,122.544158 120.911379,123.531474 120.393839,124.695316 M0,85.9539474 L0,84.8024211 C.078041791,84.6977368 .176620896,84.6033158 .221802985,84.4842632 C.776310448,83.1603158 1.70459701,82.5363158 3.13810149,82.6102105 C4.26970746,82.6717895 5.40131343,82.7826316 6.52675821,82.8811579 C8.09375522,83.0207368 9.66691343,83.1685263 11.2339104,83.3101579 C12.2484537,83.4025263 13.262997,83.4866842 14.2754866,83.5790526 C15.8055164,83.7165789 17.3355463,83.8623158 18.8635224,83.9977895 C19.898603,84.0922105 20.9316299,84.1743158 21.9646567,84.2646316 C23.5152239,84.4042105 25.0637373,84.5540526 26.6122507,84.6936316 C27.6288478,84.7818947 28.643391,84.8598947 29.6558806,84.9543158 C31.5699582,85.1328947 33.4778746,85.3217368 35.3919522,85.4921053 C36.8870687,85.6255263 38.3780776,85.7384211 39.8711403,85.8718421 C41.7852179,86.0463158 43.6972418,86.2351579 45.6113194,86.4137368 C47.2707343,86.5656316 48.9363104,86.7134211 50.6018866,86.8632632 C50.796991,86.8796842 51.0003104,86.8632632 51.2816716,86.8632632 C51.1481791,86.7072632 51.080406,86.6210526 51.0044179,86.5368947 C49.8153075,85.2108947 48.825409,83.7494211 48.1456239,82.1011579 C46.5231761,78.1642105 46.0877851,74.0774211 46.7552478,69.8900526 C47.4165493,65.7457895 49.4456358,62.3671579 52.754197,59.7767368 C55.5328955,57.603 58.7305552,56.3570526 62.1500179,55.6201579 C62.6285373,55.5195789 62.6182687,55.5236842 62.6716657,55.0331053 C62.860609,53.3540526 63.0105313,51.6667895 63.2610866,49.9959474 C63.8299701,46.2026842 64.8239761,42.5161579 66.2821254,38.9651053 C68.2475463,34.1557895 70.9831164,29.8596316 74.8687761,26.3455263 C74.9344955,26.2880526 74.9796776,26.2059474 75.0515582,26.1115263 L74.5278567,25.9370526 C73.1087284,25.4341579 71.7409433,24.8327368 70.5559403,23.8762105 C69.0341254,22.6487368 68.1736119,21.0805263 68.1448597,19.1079474 C68.1202149,17.1374211 68.7856239,15.4583684 70.344406,14.1857368 C71.6259343,13.1409474 73.1333731,12.6770526 74.7373373,12.4697368 C75.3575642,12.3896842 75.9880597,12.3588947 76.6452537,12.3014211 C76.5856955,12.1166842 76.5302448,11.9545263 76.4809552,11.7903158 C75.8299224,9.64736842 76.0804776,7.61321053 77.2346746,5.69810526 C77.9226746,4.55889474 78.8386388,3.64136842 79.9168478,2.87368421 C81.9459343,1.42863158 84.2235224,.626052632 86.665409,.238105263 C87.2137552,.149842105 87.7621015,.0759473684 88.3125015,.682121026e-13 L91.313003,.682121026e-13 C91.6498149,.0492631579 91.9866269,.0985263158 92.3234388,.147789474 C94.3463642,.439263158 96.3056239,.960631579 98.193003,1.74063158 C101.678185,3.17542105 104.658149,5.27936842 106.880287,8.36447368 C107.235582,8.85915789 107.562125,9.38052632 107.89483,9.88136842 C107.950281,9.88136842 107.987248,9.89163158 108.022161,9.88136842 C110.866579,9.06442105 113.76234,8.50815789 116.703284,8.16126316 C118.635845,7.93342105 120.57046,7.79794737 122.511236,7.77742105 C124.197349,7.76510526 125.891678,7.87184211 127.577791,7.95394737 C129.746531,8.06068421 131.894734,8.385 134.0224,8.80578947 C139.306651,9.84852632 144.334185,11.6261053 149.102949,14.1344211 C156.611391,18.0857368 162.928669,23.4841579 168.426507,29.8924737 C172.585313,34.7387368 176.115678,40.0181053 179.229134,45.5848421 C184.784478,55.5093158 188.963821,65.9428421 190.865576,77.2097368 C191.321504,79.9007368 191.699391,82.602 191.754842,85.3381579 C191.758949,85.6214211 191.822615,85.9046842 191.859582,86.1858947 L191.859582,92.9944737 C191.822615,93.2366842 191.758949,93.4809474 191.756896,93.7211053 C191.740466,95.8435263 191.454997,97.9413158 191.134615,100.028842 C190.25151,105.749526 188.653707,111.267 186.289863,116.558684 C184.149875,121.355684 181.488239,125.834526 178.14271,129.898737 C177.709373,130.432421 177.239069,130.892211 176.563391,131.099526 C176.41963,131.144684 176.296406,131.251421 176.17729,131.341737 C174.088645,132.948947 171.790519,134.172316 169.338364,135.116526 C164.645588,136.920789 159.747439,137.667947 154.754818,137.846526 C152.643582,137.914263 150.524131,137.854737 148.410842,137.756211 C146.49471,137.665895 144.576525,137.501684 142.67477,137.255368 C140.641576,136.988526 138.626866,136.602632 136.605994,136.235211 C136.228107,136.167474 135.895403,136.196211 135.540107,136.292684 C131.570245,137.405211 127.598328,138.505421 123.626412,139.607684 C114.836442,142.058526 106.048525,144.511421 97.2544478,146.947895 C96.8970985,147.046421 96.4842985,147.050526 96.1187343,146.982789 C94.1594746,146.621526 92.2043224,146.215105 90.2471164,145.837421 C87.3513552,145.281158 84.4494328,144.731053 81.5475104,144.176842 C78.6106746,143.610316 75.6738388,143.045842 72.737003,142.485474 C69.8535642,141.931263 66.9742328,141.379105 64.0928478,140.831053 C61.3634388,140.307632 58.6340299,139.780105 55.9025672,139.256684 C53.2121791,138.737368 50.5176836,138.226263 47.8272955,137.709 C45.1163701,137.187632 42.403391,136.666263 39.6924657,136.142842 C36.9630567,135.619421 34.2336478,135.096 31.5021851,134.570526 C28.4174806,133.977316 25.3307224,133.38 22.237803,132.803211 C21.1020896,132.591789 20.3278328,131.996526 19.8616358,130.939421 C16.9391761,124.274526 14.0002866,117.615789 11.0716657,110.955 C7.44066866,102.697263 3.81172537,94.4313158 .18278209,86.1694737 C.143761194,86.0894211 .0616119403,86.0257895 0,85.9539474" id="Fill-1" fill="#231916"></path>
            <path d="M120.393428,124.695932 C120.910968,123.532089 121.5887,122.544774 122.475912,121.703195 C123.786192,120.461353 125.344974,119.732668 127.144043,119.539721 C127.372007,119.513037 127.602025,119.469932 127.827936,119.447353 C128.774706,119.350879 129.38261,118.622195 129.314837,117.669774 C129.249118,116.815879 128.448162,116.117984 127.56095,116.187774 C124.708318,116.409458 122.188389,117.407037 120.114121,119.422721 C119.224855,120.288932 118.491673,121.272142 117.88993,122.355932 C117.789297,122.538616 117.690718,122.723353 117.567494,122.945037 C117.42784,122.860879 117.294347,122.797247 117.175231,122.713089 C116.123721,121.963879 115.133822,121.140774 114.285631,120.157563 C113.784521,119.570511 113.34913,118.940353 113.084198,118.205511 C112.823374,117.487089 112.880879,116.807668 113.260819,116.154932 C115.277583,112.702405 118.091195,110.306984 122.120616,109.574195 C123.461703,109.329932 124.815112,109.260142 126.191112,109.354563 C128.641213,109.514668 130.992736,110.109932 133.344258,110.752405 C135.400043,111.316879 137.486634,111.717142 139.587601,112.072247 C142.062347,112.488932 144.553524,112.651089 147.050861,112.497142 C150.681858,112.265195 154.031494,111.236826 156.810192,108.757247 C157.025834,108.568405 157.239422,108.371353 157.424258,108.147616 C158.771506,106.530142 157.929476,104.064932 155.883959,103.586668 C154.926921,103.356774 154.058192,103.564089 153.372246,104.220932 C151.914097,105.622879 150.149941,106.353616 148.196843,106.663563 C146.931744,106.860616 145.650216,106.977616 144.356365,106.8483 C143.40138,106.745668 142.440234,106.737458 141.49141,106.591721 C139.883339,106.345405 138.277321,106.074458 136.687733,105.723458 C134.85375,105.319089 133.050574,104.799774 131.224807,104.370774 C129.559231,103.972563 127.86901,103.777563 126.160306,103.670826 C125.096473,103.603089 124.042909,103.637984 122.995506,103.730353 C119.210479,104.064932 115.797177,105.368353 112.864449,107.835616 C111.003768,109.399721 109.494276,111.261458 108.307219,113.373616 C106.962025,115.762879 106.900413,118.234247 107.974515,120.742563 C108.05461,120.937563 108.144974,121.132563 108.231231,121.323458 C108.235339,121.335774 108.223016,121.358353 108.212747,121.421984 C107.736282,121.3953 107.249547,121.374774 106.760759,121.333721 C105.559327,121.231089 104.35584,121.120247 103.154407,121.009405 C102.047446,120.906774 100.940485,120.795932 99.8294161,120.699458 C98.8189803,120.607089 97.804437,120.529089 96.7919475,120.444932 C95.5864072,120.334089 94.3849743,120.217089 93.1835415,120.116511 C92.1689982,120.028247 91.1565087,119.948195 90.1419654,119.866089 C89.5094161,119.816826 88.8789206,119.773721 88.2463713,119.726511 C87.8931296,119.699826 87.6733803,119.533563 87.5090818,119.196932 C82.9046161,109.797932 78.2919355,100.403037 73.6792549,91.0040368 C73.5437087,90.7289842 73.4102161,90.4457211 73.3301206,90.1542474 C72.9501803,88.7379316 71.6440072,88.0030895 70.4590042,88.0174579 C67.288043,88.0585105 64.1910161,87.5720368 61.1946221,86.5149316 C59.4263594,85.8888789 57.7813206,85.0308789 56.33344,83.8177737 C54.2756012,82.0915105 53.0515773,79.8931421 52.5360907,77.2719316 C52.2814281,75.9849316 52.1171296,74.6876684 52.1128986,73.3821947 C52.0965922,69.0901421 53.71904,65.6499316 57.4814758,63.3735632 C59.475649,62.1645632 61.6505504,61.4379316 63.9425146,61.0499842 C64.5463116,60.9473526 65.1562699,60.8898789 65.7662281,60.8200895 C67.1175833,60.6599842 68.1547176,59.4817737 68.220437,58.0367211 C68.2676728,56.9426684 68.2676728,55.8445105 68.3662519,54.7566158 C68.9741564,48.0773526 70.5760669,41.6957211 74.168043,35.9421947 C76.5421564,32.1407211 79.6699893,29.1438789 83.6994101,27.1199842 C84.8228012,26.5534579 85.4163296,25.4594053 85.2992669,24.2894053 C85.1822042,23.1522474 84.3997325,22.1813526 83.2927713,21.8590895 C82.9456907,21.7605632 82.5780728,21.7174579 82.2145624,21.6887211 C80.1649385,21.5204053 78.1399594,21.1981421 76.1950758,20.5105105 C75.5460967,20.2847211 74.9422997,19.9398789 74.3261803,19.6299316 C74.1762579,19.5539842 74.0448191,19.4287737 73.9339176,19.2953526 C73.6792549,18.9895105 73.7449743,18.5892474 74.1351833,18.4476158 C74.6691534,18.2567211 75.2359833,18.0678789 75.7987057,18.0391421 C79.0189564,17.8749316 82.0995534,18.5091947 85.0466579,19.7920895 C85.8517206,20.1410368 86.6341922,20.3339842 87.4905982,20.0076158 C88.5831833,19.5909316 89.2260012,18.7945105 89.3512788,17.6532474 C89.4786101,16.4586158 88.9918758,15.5020895 87.9444728,14.8945105 C87.1989684,14.4593526 86.4041743,14.1145105 85.6504549,13.6855105 C84.594837,13.0861421 83.5946699,12.3985105 82.7854997,11.4809842 C82.4938699,11.1546158 82.233046,10.7851421 82.0215116,10.4013 C81.6682699,9.75472105 81.7072907,9.09172105 82.171434,8.50877368 C82.4671713,8.1393 82.8121982,7.79445789 83.188031,7.50298421 C84.2929385,6.65524737 85.5847355,6.21393158 86.9258221,5.92656316 C92.0149684,4.83045789 98.1576788,7.10066842 101.254706,10.4218263 C102.312377,11.5630895 103.156461,12.8234053 103.655518,14.3156684 C104.055995,15.5082474 105.008927,16.1835632 106.317153,16.2554053 C106.686825,16.2759316 107.081141,16.1486684 107.434383,16.0214053 C109.952258,15.1059316 112.542013,14.5024579 115.179004,14.0816684 C117.095136,13.7737737 119.021536,13.6075105 120.958204,13.4843526 C122.944162,13.3591421 124.921906,13.4001947 126.895541,13.5479842 C136.771936,14.2807737 145.637894,17.7271421 153.56735,23.6202474 C158.467553,27.2575105 162.683864,31.5824053 166.423709,36.3896684 C170.654395,41.8250368 174.153953,47.7160895 177.197583,53.8821947 C179.968067,59.4940895 182.229225,65.2989316 183.822921,71.3583 C184.685488,74.6486684 185.342682,77.9800895 185.753428,81.3587211 C186.030682,83.6494579 186.190873,85.9463526 186.242216,88.2555632 C186.447589,97.9686158 184.531458,107.225984 180.308986,115.990721 C178.861106,118.991668 177.166777,121.848932 175.166443,124.519405 C174.351112,125.605247 173.295494,126.446826 172.207016,127.235037 C169.960234,128.873037 167.434144,129.930142 164.77867,130.687563 C162.768067,131.260247 160.712282,131.619458 158.633906,131.884247 C155.475267,132.286563 152.304306,132.286563 149.137452,132.171616 C147.245965,132.103879 145.354479,131.851405 143.471207,131.644089 C140.035315,131.252037 136.661034,130.554142 133.323721,129.667405 C129.066336,128.536405 124.936282,127.064668 121.013655,125.042826 C120.810336,124.936089 120.615231,124.821142 120.393428,124.695932" id="Fill-3" fill="#FFF000"></path>
            <path d="M125.60395,133.213121 C116.403233,135.7707 107.323687,138.295437 98.1886901,140.832489 C95.86592,135.774805 93.5616334,130.762279 91.218326,125.657384 C91.9268633,125.704595 92.5470901,125.743595 93.1693707,125.801068 C93.779329,125.852384 94.3872334,125.928332 94.9992454,125.979647 C96.7202722,126.135647 98.4371916,126.289595 100.158219,126.435332 C101.708786,126.5667 103.259353,126.679595 104.805813,126.817121 C106.333789,126.948489 107.863819,127.100384 109.391795,127.235858 C110.441251,127.330279 111.494816,127.414437 112.546326,127.496542 C113.063866,127.537595 113.581407,127.568384 114.094839,127.625858 C114.261192,127.646384 114.433705,127.714121 114.569251,127.804437 C117.879866,130.006911 121.465681,131.651068 125.184989,133.032489 C125.291783,133.071489 125.392416,133.120753 125.60395,133.213121" id="Fill-5" fill="#DBDCDC"></path>
            <path d="M38.5690746,111.211579 C38.146006,110.702526 37.6325731,110.409 36.9425194,110.378211 C36.3551522,110.347421 35.7677851,110.222211 35.1886328,110.109316 C34.9996896,110.068263 34.8312836,109.926632 34.621803,109.813737 C34.9319164,109.068632 35.6568836,108.783316 36.0861134,108.190105 C35.8129672,107.564053 35.6425075,106.907211 35.6425075,106.203158 C35.6404537,104.854579 36.4147104,103.834421 38.0535881,103.748211 C40.0600836,103.641474 41.7646806,104.405053 43.2413134,105.716684 C43.9519045,106.344789 44.5166806,107.094 45.0239522,107.896579 C45.6503403,108.892105 45.851606,109.951263 45.5743522,111.092526 C45.5435463,111.238263 45.5065791,111.386053 45.461397,111.566684 C45.5928358,111.630316 45.7037373,111.702158 45.8208,111.745263 C47.0838448,112.190684 48.3489433,112.644316 49.6222567,113.071263 C50.0165731,113.206737 50.4396418,113.264211 50.8483343,113.362737 C51.5630328,113.541316 52.1894209,113.136947 52.3701493,112.478053 C52.4831045,112.057263 52.6843701,111.700105 52.9924299,111.394263 C53.411391,110.979632 53.7502567,111.006316 54.0850149,111.478421 C54.1548418,111.572842 54.2082388,111.673421 54.2595821,111.776053 C55.0666985,113.416105 55.8224716,115.074632 56.4118925,116.805 C56.5289552,117.147789 56.6254806,117.502895 56.6501254,117.864158 C56.7178985,118.958211 56.2147343,119.791579 55.3295761,120.397105 C54.4711164,120.984158 53.4812179,121.257158 52.4666746,121.349526 C48.2976,121.733368 44.4776597,120.731684 41.0048,118.399895 C39.8875701,117.652737 38.9223164,116.749579 38.3637015,115.497474 C37.9344716,114.528632 37.7003463,113.520789 38.0104597,112.471895 C38.1295761,112.055211 38.359594,111.669316 38.5690746,111.211579" id="Fill-7" fill="#FFF000"></path>
            <path d="M136.043066,65.6727158 C133.880487,67.6432421 132.496272,70.1330842 131.789789,73.0683474 C131.672726,73.5507158 131.586469,74.0412947 131.481729,74.5708737 C130.982672,74.5708737 128.559269,75.5417684 127.768583,75.8229789 C124.905681,76.8451895 121.958577,77.5287158 118.951914,77.9741368 C116.608607,78.3148737 114.25503,78.4831895 111.891186,78.5550316 C110.332404,78.6042947 108.779783,78.6432947 107.223054,78.6679263 C105.964117,78.6925579 104.703126,78.7212947 103.444189,78.6925579 C100.811305,78.6268737 98.1804752,78.5488737 95.5496454,78.4236632 C93.52672,78.3271895 91.5037946,78.1978737 89.4849767,77.9967158 C86.8849528,77.7380842 84.2931439,77.4322421 81.7033887,77.0915053 C77.9491678,76.6009263 74.231914,75.9235579 70.5557349,75.0204 C69.4097528,74.7371368 68.2658245,74.4456632 67.2430663,73.8175579 C66.2552215,73.2038211 65.4932872,72.4135579 65.2304096,71.2332947 C64.7888573,69.2484 66.2367379,67.1157158 68.2535021,66.7729263 C69.6212872,66.5430316 70.8288812,66.9761368 71.9728096,67.6678737 C72.0220991,67.6986632 72.0775499,67.7232947 72.1186245,67.7622947 C72.8230543,68.4622421 73.7287499,68.5279263 74.644714,68.6223474 C76.1336693,68.7824526 77.6205707,68.9815579 79.1033648,69.1724526 C80.7627797,69.3879789 82.4139797,69.6219789 84.0713409,69.8272421 C85.6239618,70.0242947 87.1786364,70.2151895 88.7374185,70.3814526 C89.7478543,70.4922947 90.7623976,70.5559263 91.7789946,70.6400842 C92.2985887,70.6811368 92.7278185,70.4943474 93.1118663,70.1433474 C95.093717,68.3165053 97.24192,66.7318737 99.6694304,65.5413474 C102.22838,64.2789789 104.920821,63.5564526 107.777562,63.4661368 C111.270959,63.3532421 114.548714,64.1989263 117.674493,65.7035053 C119.972619,66.8098737 122.077693,68.2077158 123.956857,69.9442421 C124.589407,70.5271895 125.575198,70.4779263 126.199532,69.8580316 C126.304272,69.7554 126.464463,69.6753474 126.608224,69.6548211 C130.120105,69.2217158 133.225347,67.8608211 135.884929,65.5290316 L136.043066,65.6727158 Z" id="Fill-9" fill="#F29700"></path>
            <path d="M116.600802,49.5082421 C116.569996,53.5827158 119.849805,56.9346632 123.924408,57.0229263 C128.132504,57.1152947 131.57045,53.7592421 131.593155,49.6211368 C131.615632,45.3927158 128.280373,42.0243474 124.111298,42.0243474 C119.962761,42.0243474 116.600802,45.3701368 116.600802,49.5082421 M138.501793,52.6980316 C138.45045,56.3701895 137.216158,59.5722947 134.681853,62.2427684 C132.393996,64.6546105 129.576277,66.0360316 126.286199,66.4711895 C126.056181,66.4999263 125.826164,66.5060842 125.598199,66.5368737 C125.156647,66.5943474 124.81162,66.4629789 124.446056,66.1797158 C121.211429,63.6631895 117.627668,61.8363474 113.620838,60.8777684 C113.503776,60.8469789 113.376444,60.7587158 113.306617,60.6601895 C111.975799,58.7635579 111.152253,56.6678211 110.891429,54.3606632 C110.478629,50.7377684 111.330928,47.4289263 113.497614,44.5039263 C115.764934,41.4455053 118.804456,39.6063474 122.577161,39.0254526 C129.685125,37.9272947 136.390558,42.4882421 138.105423,49.4158737 C138.372408,50.4935053 138.49974,51.5875579 138.501793,52.6980316" id="Fill-11" fill="#FEFEFE"></path>
            <path d="M83.2699749,46.0746 C81.778966,49.8329684 82.3724943,53.0987053 85.6440884,55.6111263 C88.046954,57.4584947 91.3883749,57.4954421 93.9699152,55.8923368 C96.3953719,54.3877579 98.0301421,51.4155474 97.3380346,47.9117053 C97.687169,47.9527579 98.0239809,47.9897053 98.3607928,48.0307579 C100.207097,48.2750211 102.053402,48.5151789 103.90176,48.7656 C104.524041,48.8497579 104.530202,48.8559158 104.665748,49.4655474 C105.612518,53.6508632 104.823885,57.4831263 102.320387,60.9623368 C102.252614,61.0567579 102.143766,61.1450211 102.036972,61.1799158 C98.5107152,62.2513895 95.3952048,64.0638632 92.5528406,66.3771789 C92.4481003,66.4613368 92.2961242,66.5229158 92.1626316,66.5290737 C88.6261063,66.7281789 85.4263928,65.7962842 82.6415331,63.5897053 C79.8279212,61.3667053 78.1027869,58.4704421 77.5277421,54.9234947 C77.0040406,51.7008632 77.5770316,48.6609158 79.1809958,45.8159684 C79.2836824,45.6271263 79.3884227,45.5655474 79.6061182,45.5963368 C80.8321958,45.7667053 82.0582734,45.9186 83.2699749,46.0746" id="Fill-13" fill="#FEFEFE"></path>

            <path d="M79.8763893,80.0731579 C80.7471713,80.1963158 81.552234,80.3133158 82.3593504,80.4138947 C83.7435654,80.5863158 85.1236728,80.7628421 86.5078878,80.9065263 C88.0646161,81.0707368 89.6254519,81.2185263 91.184234,81.3478421 C92.4020967,81.4484211 93.6158519,81.5387368 94.8357684,81.5941579 C97.1708609,81.6947368 99.5038997,81.7891579 101.838992,81.8384211 C103.855756,81.8794737 105.874574,81.8856316 107.893392,81.8630526 C109.690407,81.8384211 111.489476,81.7665789 113.28033,81.6967895 C116.048759,81.5859474 118.800759,81.3006316 121.5199,80.7854211 C124.830515,80.1593684 128.063088,79.2746842 131.153953,77.9096842 C131.201189,77.8912105 131.254586,77.8768421 131.347004,77.844 C131.486658,79.9171579 132.069918,81.8322632 133.170718,83.6201053 C132.663446,83.7945789 132.174658,83.9690526 131.68587,84.1353158 C128.426598,85.2293684 125.085177,86.0175789 121.688306,86.5676842 C119.172485,86.9741053 116.646395,87.2573684 114.103876,87.4277368 C111.388843,87.6165789 108.669703,87.711 105.950562,87.6309474 C103.596986,87.5570526 101.247518,87.4133684 98.9001027,87.2532632 C96.0721146,87.0541579 93.2626101,86.6846842 90.4695355,86.2002632 C88.1734639,85.8 85.8691773,85.4120526 83.6798997,84.5827895 C83.0165445,84.3364737 82.3839952,83.9936842 81.7945743,83.6077895 C80.7471713,82.9263158 80.3097266,81.8322632 80.016043,80.6745789 C79.9708609,80.4898421 79.9297863,80.3030526 79.8763893,80.0731579" id="Fill-15" fill="#F29700"></path>

            <path d="M91.9461684,49.5183 C91.9461684,50.5897737 91.07744,51.4724053 90.0136072,51.4785632 C88.9395057,51.4867737 88.0461325,50.5938789 88.0502259,49.5183 C88.0543475,48.4529842 88.9374519,47.5785632 90.0012848,47.5785632 C91.0692251,47.5826684 91.9461684,48.4509316 91.9461684,49.5183" id="Fill-17" fill="#FEFEFE"></path>
            <path d="M126.03318,49.5183 C126.029072,48.4427211 125.172666,47.5785632 124.098565,47.5785632 C123.032678,47.5785632 122.153667,48.4529842 122.153667,49.5224053 C122.149574,50.6041421 123.032678,51.4867737 124.108833,51.4785632 C125.180881,51.4724053 126.03318,50.6020895 126.03318,49.5183 M116.600392,49.5080368 C116.600392,45.3699316 119.96235,42.0241421 124.110887,42.0261938 C128.279962,42.0261938 131.615221,45.3925105 131.592745,49.6209316 C131.570039,53.7590368 128.132093,57.1150895 123.926051,57.0227211 C119.849395,56.9344579 116.571639,53.5825105 116.600392,49.5080368" id="Fill-19" fill="#231916"></path>
            <path d="M126.03318,49.5183 C126.03318,50.6020895 125.180881,51.4724053 124.108833,51.4785632 C123.032678,51.4867737 122.149574,50.6041421 122.153667,49.5224053 C122.153667,48.4529842 123.032678,47.5785632 124.098565,47.5785632 C125.172666,47.5785632 126.029072,48.4427211 126.03318,49.5183" id="Fill-21" fill="#FEFEFE"></path>
            <path d="M109.252346,60.2806579 C108.782042,58.9177105 108.32406,57.5752895 107.896884,56.3293421 C107.72437,56.9061316 107.547749,57.6019737 107.31157,58.2772895 C107.075391,58.9608158 106.787869,59.6238158 106.524991,60.2806579 L109.252346,60.2806579 Z M91.9455522,49.5187105 C91.9455522,48.4513421 91.068609,47.5810263 90.0006687,47.5789737 C88.9368358,47.5789737 88.0557851,48.4533947 88.0496098,49.5187105 C88.0455164,50.5942895 88.9388896,51.4871842 90.012991,51.4789737 C91.0768239,51.4728158 91.9455522,50.5901842 91.9455522,49.5187105 L91.9455522,49.5187105 Z M106.68929,40.8504474 C106.68929,40.9838684 106.685182,41.0495526 106.68929,41.1172895 C106.806352,42.4453421 106.917254,43.7733947 107.03637,45.0993947 C107.087713,45.6720789 107.089767,46.2591316 107.221206,46.8133421 C107.412203,47.6282368 107.699725,48.4226053 107.919475,49.1369211 C108.163869,48.3589737 108.391833,47.4783947 108.716322,46.6327105 C109.040812,45.7767632 109.465934,44.9557105 109.852036,44.0997632 C108.829278,43.0488158 107.779821,41.9711842 106.68929,40.8504474 L106.68929,40.8504474 Z M79.8757731,80.0741842 C79.9312239,80.3040789 79.9702448,80.4908684 80.0174806,80.6756053 C80.3091104,81.8332895 80.7465552,82.9252895 81.7939582,83.6067632 C82.3833791,83.9947105 83.0179821,84.3375 83.6792836,84.5838158 C85.8685612,85.4110263 88.1728478,85.8010263 90.4689194,86.2012895 C93.261994,86.6836579 96.0714985,87.0551842 98.8994866,87.2542895 C101.248955,87.4143947 103.59637,87.5580789 105.952,87.6299211 C108.669087,87.7099737 111.388227,87.6155526 114.10326,87.4287632 C116.647833,87.2583947 119.171869,86.9751316 121.689743,86.5687105 C125.084561,86.0165526 128.425982,85.2283421 131.685254,84.1363421 C132.174042,83.9700789 132.66283,83.7956053 133.170101,83.6190789 C132.069301,81.8332895 131.486042,79.9161316 131.346388,77.8450263 C131.25397,77.8758158 131.202627,77.8901842 131.153337,77.9107105 C128.062472,79.2757105 124.829899,80.1603947 121.521337,80.7843947 C118.800143,81.2996053 116.050197,81.5869737 113.279713,81.6978158 C111.48886,81.7676053 109.689791,81.8394474 107.892776,81.8640789 C105.873958,81.8846053 103.85514,81.8784474 101.84043,81.8394474 C99.5032836,81.7901842 97.1702448,81.6957632 94.8351522,81.5951842 C93.6172896,81.5377105 92.4014806,81.4494474 91.1836179,81.3488684 C89.6248358,81.2175 88.0660537,81.0717632 86.5072716,80.9075526 C85.1230567,80.7638684 83.7429493,80.5873421 82.3587343,80.4149211 C81.5536716,80.3143421 80.7465552,80.1952895 79.8757731,80.0741842 L79.8757731,80.0741842 Z M83.270591,46.0743947 C82.0588896,45.9183947 80.8307582,45.7665 79.6046806,45.5961316 C79.3890388,45.5653421 79.2822448,45.6269211 79.1795582,45.8157632 C77.575594,48.6607105 77.0046567,51.7006579 77.5283582,54.9232895 C78.103403,58.4702368 79.8285373,61.3665 82.6421493,63.5895 C85.4249552,65.7981316 88.6267224,66.7279737 92.1632478,66.5288684 C92.2946866,66.5227105 92.4466627,66.4611316 92.551403,66.3769737 C95.3958209,64.0636579 98.5113313,62.2511842 102.035534,61.1797105 C102.144382,61.1448158 102.25323,61.0565526 102.321003,60.9621316 C104.824501,57.4829211 105.613134,53.6527105 104.666364,49.4653421 C104.528764,48.8577632 104.522603,48.8495526 103.902376,48.7653947 C102.054018,48.5170263 100.207713,48.2748158 98.3593552,48.0305526 C98.0225433,47.9895 97.6857313,47.9525526 97.336597,47.9115 C98.0287045,51.4153421 96.3939343,54.3875526 93.9705313,55.8921316 C91.388991,57.4972895 88.0475701,57.4582895 85.6447045,55.6129737 C82.3710567,53.0985 81.7795821,49.8327632 83.270591,46.0743947 L83.270591,46.0743947 Z M138.501588,52.6982368 C138.499534,51.5877632 138.372203,50.4937105 138.105218,49.4160789 C136.390352,42.4884474 129.684919,37.9275 122.576955,39.0256579 C118.804251,39.6065526 115.764728,41.4457105 113.497409,44.5041316 C111.330722,47.4291316 110.478424,50.7379737 110.891224,54.3608684 C111.152048,56.6680263 111.975594,58.7637632 113.306412,60.6603947 C113.376239,60.7589211 113.50357,60.8471842 113.620633,60.8779737 C117.627463,61.8365526 121.211224,63.6613421 124.445851,66.1799211 C124.811415,66.4631842 125.156442,66.5945526 125.597994,66.5370789 C125.825958,66.5062895 126.05803,66.5001316 126.285994,66.4713947 C129.576072,66.0362368 132.395845,64.6548158 134.681648,62.2429737 C137.215952,59.5725 138.450245,56.3703947 138.501588,52.6982368 L138.501588,52.6982368 Z M156.547725,93.3095526 L155.451033,93.3095526 C155.387367,93.2931316 155.327809,93.2685 155.26209,93.2582368 C154.003152,93.1207105 152.738054,93.0180789 151.483224,92.8497632 C148.741493,92.4782368 146.053158,91.8603947 143.438758,90.9428684 C140.922937,90.0602368 138.544716,88.9128158 136.447857,87.2460789 C136.014519,86.9012368 135.605827,86.5256053 135.215618,86.1889737 C134.95274,86.3162368 134.718615,86.4517105 134.474221,86.5461316 C133.952573,86.7431842 133.426818,86.9217632 132.899009,87.1023947 C127.703069,88.8635526 122.353099,89.9042368 116.898388,90.4071316 C114.528382,90.6226579 112.146054,90.7683947 109.767833,90.8032895 C107.163701,90.8484474 104.555463,90.8012368 101.955439,90.6657632 C99.4272955,90.5302895 96.892991,90.3127105 94.3833313,89.9925 C91.8161672,89.6640789 89.2613254,89.2022368 86.7146985,88.7301316 C85.0470687,88.4242895 83.4040836,87.9829737 81.8370866,87.3076579 C79.7299582,86.3921842 78.1013493,84.9840789 77.3312,82.7672368 C76.9984955,81.8004474 76.7951761,80.7885 76.5507821,79.7929737 C76.5035463,79.6061842 76.4357731,79.5076579 76.2324537,79.4666053 C74.2115821,79.0581316 72.1886567,78.6558158 70.1801075,78.2124474 C68.7527642,77.8983947 67.3439045,77.5227632 66.048,76.8228158 C64.1955343,75.8088158 62.8154269,74.3925 62.2034149,72.3275526 C62.088406,71.9478158 62.0329552,71.5475526 61.9487522,71.1555 L61.9487522,69.8295 C61.9631284,69.8007632 61.9918806,69.7658684 61.9939343,69.7330263 C62.0822448,68.8668158 62.3533373,68.0539737 62.7517612,67.2760263 C64.1072239,64.6507105 67.0974567,63.1358684 69.9973254,63.5751316 C71.5088716,63.8091316 72.8622806,64.3961842 74.1232716,65.2439211 C74.2280119,65.3137105 74.3635582,65.3670789 74.4867821,65.3835 C76.1544119,65.5928684 77.8220418,65.7981316 79.4917254,65.9992895 C79.6827224,66.0218684 79.8696119,66.0526579 80.060609,66.0772895 C80.2413373,66.0998684 80.4220657,66.1142368 80.6726209,66.1388684 C77.4934448,63.5607632 75.4314985,60.3627632 74.556609,56.4463421 C73.6858269,52.5381316 74.1664,48.7695 75.901803,45.1425 C75.8155463,45.1219737 75.7518806,45.0993947 75.6861612,45.0932368 C74.3450746,44.9167105 73.0019343,44.7442895 71.6567403,44.5677632 C69.2990567,44.2598684 66.9372657,43.9560789 64.5775284,43.6461316 C63.8176478,43.5476053 63.3822567,42.9051316 63.5424478,42.1456579 C64.1113313,39.4259211 64.6761075,36.7041316 65.2429373,33.9802895 C65.4195582,33.1305 65.9350448,32.7774474 66.7976119,32.8698158 C67.9374328,32.9970789 69.0772537,33.0915 70.2129672,33.2002895 C71.5232478,33.3234474 72.8355821,33.4527632 74.143809,33.5738684 C75.4540896,33.7011316 76.7643701,33.8242895 78.0746507,33.9474474 C79.3746627,34.0685526 80.6787821,34.1896579 81.978794,34.3128158 C83.3342567,34.4421316 84.6917731,34.5735 86.0492896,34.7007632 C87.3328716,34.8198158 88.6123463,34.9409211 89.8918209,35.0620263 C91.4341731,35.2098158 92.9724179,35.3576053 94.5127164,35.5074474 C96.013994,35.6470263 97.5173254,35.7845526 99.0206567,35.9282368 C100.5856,36.0739737 102.154651,36.2217632 103.725755,36.3757105 C104.327499,36.4352368 104.931296,36.4845 105.528931,36.5748158 C105.697337,36.6015 105.783594,36.5809737 105.892442,36.4598684 C108.077612,34.0418684 110.342878,31.6998158 112.725206,29.4727105 C114.721433,27.6089211 116.781325,25.8210789 119.017839,24.2446579 C120.510901,23.1937105 122.059415,22.2269211 123.805087,21.6378158 C124.371916,21.4448684 124.967499,21.3422368 125.552812,21.1985526 C126.051869,21.1985526 127.204012,21.2355 127.277946,21.2396053 C128.990758,21.3709737 130.650173,21.7732895 132.286997,22.2720789 C137.620537,23.8936579 142.656287,26.2213421 147.597564,28.7707105 C148.353337,29.1607105 148.4704,30.1295526 147.862496,30.7227632 C147.675606,30.9013421 147.480501,31.0737632 147.289504,31.2461842 C145.180322,33.2023421 143.075248,35.1564474 140.964012,37.1064474 C140.503976,37.5333947 140.015188,37.5785526 139.458627,37.3055526 C137.782782,36.4762895 136.115152,35.6265 134.416716,34.8444474 C132.656669,34.0398158 130.853493,33.3378158 128.962006,32.8780263 C127.95157,32.6337632 127.060251,32.7158684 126.222328,33.3727105 C125.267343,34.1137105 124.275391,34.8116053 123.301922,35.5300263 C123.234149,35.5813421 123.172537,35.6408684 123.06369,35.7352895 C123.188967,35.7311842 123.246472,35.7311842 123.303976,35.7229737 C124.866866,35.5916053 126.415379,35.6778158 127.949516,35.9918684 C131.970722,36.8047105 135.318304,38.7772895 137.877254,41.9773421 C141.300824,46.2591316 142.416,51.1300263 141.26591,56.4791842 C140.493707,60.0836053 138.65151,63.0968684 135.885134,65.5292368 C133.225552,67.8610263 130.12031,69.2198684 126.60843,69.6550263 C126.464669,69.6755526 126.304478,69.7556053 126.199737,69.8582368 C125.575403,70.4781316 124.589612,70.5273947 123.957063,69.9444474 C122.077899,68.2079211 119.972824,66.8100789 117.674699,65.7037105 C114.548919,64.1991316 111.271164,63.3534474 107.777767,63.4663421 C104.921027,63.5566579 102.228585,64.2791842 99.6696358,65.5415526 C97.2421254,66.7320789 95.0918687,68.3167105 93.1120716,70.1435526 C92.7280239,70.4945526 92.298794,70.6813421 91.7792,70.6402895 C90.762603,70.5561316 89.7480597,70.4925 88.7376239,70.3816579 C87.1788418,70.2153947 85.6241672,70.0245 84.0715463,69.8274474 C82.4141851,69.6221842 80.7629851,69.3881842 79.1035701,69.1726579 C77.6207761,68.9817632 76.1338746,68.7826579 74.6428657,68.6225526 C73.7289552,68.5281316 72.8232597,68.4624474 72.1188299,67.7625 C72.0777552,67.7235 72.0223045,67.6988684 71.9730149,67.6680789 C70.8290866,66.9763421 69.6214925,66.5432368 68.2537075,66.7731316 C66.2369433,67.1159211 64.7890627,69.2486053 65.2285612,71.2335 C65.4934925,72.4137632 66.2533731,73.2040263 67.2432716,73.8177632 C68.2660299,74.4458684 69.4099582,74.7373421 70.5559403,75.0206053 C74.2321194,75.9237632 77.9493731,76.6011316 81.703594,77.0917105 C84.2933493,77.4324474 86.8851582,77.7382895 89.4851821,77.9969211 C91.5019463,78.1980789 93.5269254,78.3273947 95.5498507,78.4238684 C98.1806806,78.5490789 100.81151,78.6270789 103.444394,78.6927632 C104.703331,78.7215 105.962269,78.6927632 107.22326,78.6681316 C108.779988,78.6435 110.332609,78.6045 111.891391,78.5552368 C114.255236,78.4833947 116.608812,78.3150789 118.952119,77.9743421 C121.958782,77.5289211 124.905887,76.8453947 127.768788,75.8231842 C128.559475,75.5419737 130.982878,74.5710789 131.481934,74.5710789 C131.586675,74.0415 131.672931,73.5509211 131.789994,73.0665 C132.638185,69.5462368 134.463952,66.6643421 137.439809,64.5521842 C139.986436,62.7479211 142.863713,61.8037105 145.907343,61.2946579 C147.989827,60.9457105 150.086687,60.8348684 152.197922,60.8779737 C154.138699,60.9169737 156.069206,61.0791316 157.985337,61.4055 C158.880764,61.5594474 159.498937,62.3722895 159.355176,63.2015526 C159.182663,64.1621842 158.369385,64.7184474 157.422615,64.5686053 C156.424501,64.4146579 155.424334,64.2771316 154.422113,64.1888684 C152.553218,64.0287632 150.682269,64.0123421 148.809266,64.1683421 C146.798663,64.3325526 144.831188,64.6691842 142.923272,65.3342368 C140.900346,66.0403421 139.060203,67.0563947 137.604107,68.6512895 C135.314197,71.1596053 134.445469,74.1790263 134.541994,77.5063421 C134.611821,79.8483947 135.540107,81.8538158 137.152287,83.5492895 C138.261301,84.7192895 139.563367,85.6347632 140.978388,86.3819211 C144.78806,88.3935 148.911952,89.3171842 153.142639,89.8406053 C154.220848,89.9760789 155.305218,90.0253421 156.385481,90.1259211 C157.114555,90.1936579 157.660848,90.7109211 157.800501,91.4355 C157.925779,92.0820789 157.591021,92.7861316 156.989278,93.1125 C156.849624,93.1925526 156.695594,93.2459211 156.547725,93.3095526 L156.547725,93.3095526 Z" id="Fill-23" fill="#231916"></path>
        </g>
    </g>
</svg>
