<svg width="580" height="400" xmlns="http://www.w3.org/2000/svg">
 <!-- Created with Method Draw - http://github.com/duopixel/Method-Draw/ -->
 <g>
  <title>background</title>
  <rect fill="#fff" id="canvas_background" height="402" width="582" y="-1" x="-1"/>
  <g display="none" overflow="visible" y="0" x="0" height="100%" width="100%" id="canvasGrid">
   <rect fill="url(#gridpattern)" stroke-width="0" y="0" x="0" height="100%" width="100%"/>
  </g>
 </g>
 <g>
  <title>Layer 1</title>
  <path d="m288.5,133.4375c1,-1 3.971497,-2.059174 6,-3c6.908844,-3.204323 12.880493,-5.251945 19,-8c4.912567,-2.206062 9.934143,-4.144295 12,-5c2.92157,-1.210152 4.823761,-2.486259 7,-3c2.919739,-0.689262 5,-1 7,-1c2,0 3,0 5,0c2,0 4,0 6,0c2,0 3.149353,-0.525734 4,0c1.9021,1.175568 2.186005,1.692551 4,3c1.147278,0.826904 1.693451,3.458801 3,4c0.923889,0.382683 0.770233,2.026749 1,3c0.513733,2.176254 1.486267,2.823746 2,5c0.229767,0.973251 0,3 0,5c0,3 0.68927,5.080246 0,8c-0.513733,2.176254 -2.420441,5.085815 -3,7c-1.04483,3.450851 -3.173096,4.852737 -4,6c-1.307465,1.813995 -2.906342,4.103409 -4,5c-2.78833,2.285873 -5.796997,5.2565 -7,6c-2.690002,1.662506 -4,2 -9,3l-2,2" id="svg_1" stroke-width="1.5" stroke="#000" fill="#FFF093"/>
  <path d="m287.5,132.4375c0,0 -3.714111,-6.211678 -6,-9c-1.793182,-2.18734 -3.076111,-3.617317 -4,-4c-1.306549,-0.541199 -3.076111,-2.617317 -4,-3c-2.613129,-1.08239 -3.186005,-1.692551 -5,-3c-1.147278,-0.826904 -3.026764,-0.770248 -4,-1c-2.176239,-0.513741 -5.228363,0.148048 -8,-1c-1.306564,-0.541199 -3,-1 -6,-1c-1,0 -3.053497,0.459503 -5,0c-2.176254,-0.513741 -3,-1 -4,-1c-2,0 -5,0 -6,0c-1,0 -2.292892,-0.707108 -3,0c-0.707108,0.707108 -1.097885,2.824432 -3,4c-0.850647,0.525734 -2.458801,0.693436 -3,2c-0.38269,0.923882 -1,2 -2,3c-1,1 -2.458801,1.693436 -3,3c-0.38269,0.923882 -1,2 -1,3c0,1 -1.496231,1.907784 -2,6c-0.24437,1.985016 0,3 0,5c0,1 0,2 0,3c0,1 0,3 0,5c0,1 -0.38269,2.076126 0,3c0.541199,1.306564 1.823746,2.486252 4,3c0.973251,0.229752 5,2 7,2c4,0 5,0 7,0c1,0 4.012909,-0.160187 5,0c3.121445,0.506546 4,1 5,1c2,0 4,0 7,0l2,0l1,0" id="svg_2" stroke-width="1.5" stroke="#000" fill="#FFE7A2"/>
  <path d="m248.5,165.4375c-2,1 -2.610641,3.159271 -4,6c-3.168213,6.477844 -7.188339,12.943665 -8,16c-1.308762,4.928207 -3,9 -4,12c-1,3 -1.493454,5.878555 -2,9c-0.480545,2.961258 0,5 0,8c0,4 0,6 0,10c0,2 0.540497,4.053497 1,6c0.513748,2.176254 1.789856,5.07843 3,8c0.855713,2.065857 1.692551,4.186005 3,6c1.653809,2.29454 4,4 7,7c3,3 6.850754,5.210052 11,8c4.838806,3.253601 7.026764,4.770233 8,5c4.352509,1.027496 9.030579,2.755188 18,4c6.025024,0.836182 13,2 16,2c3,0 4.014587,0.295624 7,0c5.074219,-0.502441 10,-2 20,-6c5,-2 7.152252,-3.234619 9,-4c2.613129,-1.082397 4,-4 5,-5c1,-1 1.61731,-2.076126 2,-3c0.541199,-1.306564 1.234619,-2.152237 2,-4c0.541199,-1.306564 1.670074,-7.013626 2,-11c0.501709,-6.062042 1.569519,-10.132996 3,-14c1.551605,-4.194351 1.691254,-5.071793 3,-10c0.811646,-3.056335 1,-7 1,-12c0,-5 0,-8 0,-10c0,-4 0,-5 0,-7c0,-2 0.459503,-4.053497 0,-6c-0.513733,-2.176254 -0.234619,-3.152237 -1,-5c-0.541199,-1.306564 -1.770233,-3.026749 -2,-4c-0.513733,-2.176254 -1.076111,-3.61731 -2,-4c-1.306549,-0.541199 -1.292908,-1.292892 -2,-2c-0.707092,-0.707108 -2,0 -3,0c-1,0 -3,0 -4,0c-2,0 -4,0 -5,0c-1,0 -2,0 -3,0l0,1" id="svg_3" stroke-width="1.5" stroke="#000" fill="#FFE7A2"/>
  <path d="m255.5,150.4375c0,0 0.306564,1.458801 -1,2c-0.923874,0.38269 -1,1 -2,1c0,0 -0.292892,1.292892 -1,2c-0.707108,0.707108 -2,1 -2,2c0,1 -0.292892,1.292892 -1,2c-0.707108,0.707108 -1,3 -1,4l0,1l-1,1" id="svg_4" stroke-width="1.5" stroke="#000" fill="#FFF093"/>
  <path d="m279.5,150.4375c-1,0 -2.80835,1.345444 -8,4c-6.780792,3.467102 -16.020157,6.9534 -23,10c-9.026459,3.939911 -18.095306,7.797684 -31,14c-6.046127,2.905914 -14.087433,5.79393 -19,8c-4.079666,1.832031 -5.152237,2.234634 -7,3c-1.306564,0.541199 -2.824432,0.097885 -4,2c-0.525726,0.850647 -0.693436,1.458801 -2,2c-0.923874,0.38269 -0.292892,1.292892 -1,2c-0.707108,0.707108 -1,1 -1,3c0,2 0,4 1,6c1,2 1.824432,2.097885 3,4c1.051468,1.701309 1.809006,5.321442 5,7c4.765991,2.50705 7.292892,4.292892 8,5c1.414215,1.414215 3,0 4,0c2,0 4.036087,0.37822 6,0c5.287994,-1.018372 7.405014,-5.126999 18,-10c8.618912,-3.964142 13.168243,-4.584808 21,-8c6.149002,-2.681396 13,-6 19,-9c8,-4 13.94342,-7.147736 19,-9c2.96933,-1.087692 3.292908,-1.292892 4,-2c0.707092,-0.707108 1.486267,-1.823746 2,-4c0.68927,-2.919754 -0.307465,-5.186005 1,-7c0.826904,-1.147263 0.770233,-2.026749 1,-3c0.513733,-2.176254 2,-6 2,-7c0,-2 0.38269,-3.076126 0,-4c-1.082397,-2.613129 -3.824432,-2.097885 -5,-4c-0.525726,-0.850647 -1,-1 -2,-1c-1,0 -3.228363,0.148056 -6,-1c-1.306549,-0.541199 -2,-1 -3,-1c-1,0 -3,0 -4,0l-1,0l-1,0" id="svg_5" stroke-width="1.5" stroke="#000" fill="#FFE7A2"/>
  <path d="m256.5,265.4375c0,0 -0.877655,0.06601 -2,2c-1.809723,3.118469 -6.220535,7.831268 -10,13c-2.128189,2.910461 -3.714127,7.21167 -6,10c-0.896591,1.093658 -1.173096,2.852722 -2,4c-1.307449,1.813995 -2.458801,3.693451 -3,5c-0.38269,0.923889 -2,4 -2,6l-1,0l0,1l-1,0" id="svg_6" stroke-width="1.5" stroke="#000" fill="none"/>
  <path d="m312.5,270.4375c0,3 0,5 0,10c0,4 0,7 0,9c0,3 0,5 0,7c0,2 1.458801,4.693451 2,6c0.38269,0.923889 -0.38269,2.076111 0,3c0.541199,1.306549 1.458801,2.693451 2,4c0.38269,0.923889 1,5 2,6l1,0" id="svg_7" stroke-width="1.5" stroke="#000" fill="none"/>
  <path d="m230.5,306.4375c0,1 -0.486252,2.823761 -1,5c-0.229752,0.973236 -1,1 -1,2c0,1 -0.149353,1.474274 -1,2c-1.902115,1.175568 -2.585785,1.585785 -4,3c-0.707108,0.707092 -1,1 -5,1c-6,0 -8.61731,-0.923889 -9,0c-0.541199,1.306549 2.280258,4.672852 7,9c5.315292,4.873169 9.346191,6.705475 11,9c1.307449,1.813995 2,2 3,2c2,0 4.386871,-1.917603 7,-3c1.847763,-0.765381 1.692551,-1.186005 3,-3c0.826904,-1.147278 1,-3 1,-5c0,-1 0.458801,-2.693451 1,-4c0.38269,-0.923889 0,-2 0,-3c0,-2 -1,-4 -1,-5c0,-2 -0.493454,-2.878571 -1,-6c-0.320358,-1.974182 0,-5 0,-6c0,-2 0.474274,-3.149353 1,-4c1.175568,-1.9021 2.21167,-1.714111 5,-4c1.093674,-0.896606 2.076126,-1.61731 3,-2c1.306564,-0.541199 2.824432,-1.0979 4,-3c0.525726,-0.850647 1,-1 1,-2c0,-1 1.486252,-1.823761 2,-4c0.229767,-0.973236 0,-2 0,-3c0,-1 1,-2 1,-3c0,-2 1,-3 1,-5c0,-1 0.292908,-1.292908 1,-2c0.707092,-0.707092 0,-2 0,-3l0,-1" id="svg_8" stroke-width="1.5" stroke="#000" fill="#FFE7A2"/>
  <path d="m317.5,272.4375c0,3 0,4 0,8c0,2 0.115875,4.963837 1,8c1.152771,3.958679 2,7 2,11c0,1 0.493469,2.878571 1,6c0.320374,1.974182 -0.459503,3.053497 0,5c0.513733,2.176239 1.61731,3.076111 2,4c0.541199,1.306549 1.076111,1.61731 2,2c2.613129,1.082397 3.076111,1.61731 4,2c1.306549,0.541199 3.292908,2.292908 4,3c0.707092,0.707092 1.61731,0.076111 2,1c0.541199,1.306549 2.692535,2.186005 4,4c0.826904,1.147278 1,2 2,2c1,0 1.525726,1.149353 1,2c-1.175568,1.9021 -5.925781,1.497559 -11,2c-4.975677,0.492676 -9.152252,-0.765381 -11,0c-1.306549,0.541199 -2,1 -5,1c-3,0 -5,0 -6,0c-1,0 -2,0 -3,0c-1,0 -3.026764,0.229767 -4,0c-2.176239,-0.513733 -2.458801,-1.693451 -3,-3c-0.38269,-0.923889 1.186005,-2.692535 3,-4c1.147278,-0.826904 1.149353,-1.474274 2,-2c1.9021,-1.175568 2.026764,-1.770233 3,-2c2.176239,-0.513733 2.693451,-2.458801 4,-3c0.923889,-0.38269 2,0 3,0l1,-1l1,0l1,0" id="svg_9" stroke-width="1.5" stroke="#000" fill="#FFF093"/>
  <polyline stroke-linecap="round" id="svg_10" points="231.5,321.4375 231.5,321.4375 " stroke-width="1.5" stroke="#000" fill="none"/>
  <polyline stroke-linecap="round" id="svg_11" points="241.5,281.4375 241.5,281.4375 " stroke-width="1.5" stroke="#000" fill="none"/>
  <polyline stroke-linecap="round" id="svg_12" points="204.5,192.4375 204.5,192.4375 " fill-opacity="null" stroke-opacity="null" stroke-width="1.5" stroke="#000" fill="none"/>
  <polyline stroke-linecap="round" id="svg_13" points="212.5,207.4375 212.5,207.4375 " stroke-opacity="null" stroke-width="1.5" stroke="#000" fill="none"/>
  <path d="m305.5,185.4375c0,0 -1,0 -2,0c0,0 -0.61731,0.076126 -1,1c-0.541199,1.306564 -1.9021,2.824432 0,4c0.850647,0.525726 1.852722,0.173096 3,1c1.813995,1.307449 2.693451,1.458801 4,2c0.923889,0.38269 2,0 4,0c1,0 2.486267,0.176254 3,-2c0.229767,-0.973251 0,-3 0,-4c0,-1 0,-2 0,-3c0,-1 -2,-1 -3,-1c-1,0 -5,-1 -7,-1l-1,0l-1,0l-1,0" id="svg_14" stroke-opacity="null" stroke-width="1.5" stroke="#000" fill="#000000"/>
  <polyline stroke-linecap="round" id="svg_15" points="-104.5,310.4375 -104.5,310.4375 " stroke-opacity="null" stroke-width="1.5" stroke="#000" fill="none"/>
 </g>
</svg>