<?xml version="1.0" encoding="UTF-8"?>
<svg width="2400px" height="2400px" viewBox="0 0 2400 2400" version="1.1" xmlns="http://www.w3.org/2000/svg" xmlns:xlink="http://www.w3.org/1999/xlink">
    <title>画板备份 7@1x</title>
    <g id="画板备份-7" stroke="none" stroke-width="1" fill="none" fill-rule="evenodd">
        <g id="编组" transform="translate(186.603009, 465.000000)">
            <path d="M385.690746,1112.11579 C383.59594,1116.69316 381.295761,1120.55211 380.104597,1124.71895 C377.003463,1135.20789 379.344716,1145.28632 383.637015,1154.97474 C389.223164,1167.49579 398.875701,1176.52737 410.048,1183.99895 C444.776597,1207.31684 482.976,1217.33368 524.666746,1213.49526 C534.812179,1212.57158 544.711164,1209.84158 553.295761,1203.97105 C562.147343,1197.91579 567.178985,1189.58211 566.501254,1178.64158 C566.254806,1175.02895 565.289552,1171.47789 564.118925,1168.05 C558.224716,1150.74632 550.666985,1134.16105 542.595821,1117.76053 C542.082388,1116.73421 541.548418,1115.72842 540.850149,1114.78421 C537.502567,1110.06316 534.11391,1109.79632 529.924299,1113.94263 C526.843701,1117.00105 524.831045,1120.57263 523.701493,1124.78053 C521.894209,1131.36947 515.630328,1135.41316 508.483343,1133.62737 C504.396418,1132.64211 500.165731,1132.06737 496.222567,1130.71263 C483.489433,1126.44316 470.838448,1121.90684 458.208,1117.45263 C457.037373,1117.02158 455.928358,1116.30316 454.61397,1115.66684 C455.065791,1113.86053 455.435463,1112.38263 455.743522,1110.92526 C458.51606,1099.51263 456.503403,1088.92105 450.239522,1078.96579 C445.166806,1070.94 439.519045,1063.44789 432.413134,1057.16684 C417.646806,1044.05053 400.600836,1036.41474 380.535881,1037.48211 C364.147104,1038.34421 356.404537,1048.54579 356.425075,1062.03158 C356.425075,1069.07211 358.129672,1075.64053 360.861134,1081.90105 C356.568836,1087.83316 349.319164,1090.68632 346.21803,1098.13737 C348.312836,1099.26632 349.996896,1100.68263 351.886328,1101.09316 C357.677851,1102.22211 363.551522,1103.47421 369.425194,1103.78211 C376.325731,1104.09 381.46006,1107.02526 385.690746,1112.11579 M1256.04155,1332.13737 C1253.92621,1331.21368 1252.91988,1330.70053 1251.85194,1330.33105 C1214.65887,1316.51684 1178.80072,1300.07526 1145.69457,1278.05053 C1144.31857,1277.14737 1142.59343,1276.47 1140.95045,1276.26474 C1135.79558,1275.69 1130.62018,1275.38211 1125.46531,1274.97158 C1114.95021,1274.15053 1104.41457,1273.30895 1093.92,1272.36474 C1078.64024,1271.01 1063.33994,1269.49105 1048.06018,1268.17737 C1032.59558,1266.80211 1017.08991,1265.65263 1001.58424,1264.35947 C984.37397,1262.90211 967.184239,1261.36263 949.994507,1259.78211 C943.874388,1259.28947 937.795343,1258.53 931.695761,1257.99632 C925.472955,1257.44211 919.250149,1257.05211 912.185313,1256.58 C935.618388,1307.60842 958.640716,1357.75421 981.888955,1408.33105 C1073.23893,1382.94 1164.01385,1357.71316 1256.04155,1332.13737 M1203.93839,1246.95316 C1206.15642,1248.20526 1208.10746,1249.37526 1210.14066,1250.42211 C1249.36693,1270.66105 1290.64693,1285.35789 1333.24131,1296.66789 C1366.61445,1305.55579 1400.35725,1312.53474 1434.71618,1316.43474 C1453.5489,1318.52842 1472.46376,1321.05316 1491.37863,1321.71 C1523.04716,1322.88 1554.75678,1322.88 1586.34316,1318.83632 C1607.12693,1316.18842 1627.68478,1312.61684 1647.79081,1306.86947 C1674.34555,1299.29526 1699.60645,1288.72421 1722.07427,1272.36474 C1732.95904,1264.46211 1743.51522,1256.06684 1751.66854,1245.18789 C1771.65134,1218.50368 1788.61516,1189.91053 1803.09397,1159.90105 C1845.31869,1072.27421 1864.48,979.68 1862.40573,882.549474 C1861.91284,859.457368 1860.31093,836.488421 1857.53839,813.581053 C1853.43093,779.815263 1846.83845,746.501053 1838.23331,713.576842 C1822.29636,653.003684 1799.68478,594.955263 1771.97994,538.815789 C1741.54364,477.154737 1706.52752,418.244211 1664.24119,363.890526 C1626.84275,315.817895 1584.67964,272.589474 1535.67761,236.196316 C1456.38304,177.265263 1367.70293,142.801579 1268.95952,135.473684 C1249.22316,134.016316 1229.44573,133.585263 1209.58615,134.857895 C1190.21946,136.068947 1170.93493,137.731579 1151.79415,140.831053 C1125.42424,145.038947 1099.52669,151.073684 1074.34794,160.207895 C1070.79499,161.480526 1066.87236,162.753158 1063.17564,162.547895 C1050.09337,161.829474 1040.56406,155.076316 1036.53875,143.150526 C1031.56872,128.227895 1023.12788,115.624737 1012.53063,104.212105 C981.580896,71.0005263 920.133254,48.3189474 869.262328,59.2594737 C855.851463,62.1536842 842.933493,66.5463158 831.884418,75.0442105 C828.12609,77.9384211 824.675821,81.3868421 821.69791,85.1021053 C817.077015,90.9110526 816.666269,97.5410526 820.219224,104.027368 C822.334567,107.845263 824.942806,111.54 827.838567,114.803684 C835.950806,123.978947 845.952478,130.855263 856.508657,136.848947 C864.045851,141.138947 871.993791,144.587368 879.448836,148.938947 C889.922866,155.014737 894.790209,164.58 893.516896,176.526316 C892.264119,187.959474 885.83594,195.903158 874.889552,200.07 C866.325493,203.354211 858.500776,201.424737 850.470687,197.914737 C820.999642,185.085789 790.193672,178.743158 757.991164,180.385263 C752.36394,180.672632 746.695642,182.561053 741.335403,184.490526 C737.453851,185.886316 736.796657,189.888947 739.343284,192.967895 C740.431761,194.281579 741.766687,195.554211 743.26591,196.313684 C749.427104,199.392632 755.465075,202.841053 761.954866,205.098947 C781.403701,211.975263 801.653493,215.218421 822.149731,216.901579 C825.784836,217.168421 829.440478,217.599474 832.911284,218.605263 C843.980896,221.807368 851.826149,231.536842 852.996776,242.887895 C854.167403,254.608421 848.211582,265.528421 836.998209,271.193684 C796.704,291.453158 765.425672,321.421579 741.684537,359.415789 C705.764776,416.971579 689.745672,480.767368 683.666627,547.56 C682.680836,558.438947 682.680836,569.441053 682.208478,580.381579 C681.551284,594.832105 671.159403,606.593684 657.666388,608.194737 C651.566806,608.892632 645.446687,609.487895 639.408716,610.514211 C616.509612,614.373158 594.760597,621.639474 574.818866,633.729474 C537.194507,656.513684 520.97003,690.895263 521.133094,733.815789 C521.175403,746.870526 522.818388,759.843158 525.365015,772.713158 C530.519881,798.925263 542.739582,820.908947 563.31797,838.171579 C577.796776,850.302632 594.267701,858.882632 611.950328,865.163684 C641.914269,875.714211 672.864,880.599474 704.573612,880.168421 C716.423642,880.024737 729.50591,887.393684 733.305313,901.536316 C734.106269,904.471579 735.441194,907.283684 736.796657,910.034211 C782.923463,1004.02421 829.050269,1097.99368 875.094925,1191.98368 C876.73791,1195.35 878.935403,1197.01263 882.447284,1197.25895 C888.793313,1197.73105 895.098269,1198.16211 901.403224,1198.67526 C911.548657,1199.47579 921.69409,1200.27632 931.839522,1201.15895 C943.853851,1202.18526 955.868179,1203.33474 967.923582,1204.44316 C978.048478,1205.28474 988.19391,1206.06474 998.298269,1206.98842 C1009.40896,1207.95316 1020.47857,1209.08211 1031.54818,1210.08789 C1043.56251,1211.19632 1055.59737,1212.30474 1067.6117,1213.35158 C1072.47904,1213.74158 1077.36693,1213.94684 1082.13158,1214.23421 C1082.23427,1213.57737 1082.35749,1213.37211 1082.31642,1213.24895 C1081.45385,1211.31947 1080.55021,1209.36947 1079.74925,1207.44 C1068.9877,1182.33632 1069.62436,1157.64316 1083.0763,1133.75053 C1094.94687,1112.60842 1110.04179,1093.99105 1128.6486,1078.35 C1157.97588,1053.67737 1192.1089,1040.66368 1229.93863,1037.29737 C1240.43319,1036.39421 1250.96884,1036.02474 1261.58663,1036.70211 C1278.67367,1037.76947 1295.59642,1039.74 1312.25218,1043.70158 C1330.50985,1047.99158 1348.54161,1053.18474 1366.8609,1057.22842 C1382.77731,1060.73842 1398.83749,1063.44789 1414.91821,1065.91105 C1424.40645,1067.36842 1434.01791,1067.45053 1443.56776,1068.47684 C1456.50627,1069.77 1469.32155,1068.6 1481.97254,1066.62947 C1501.50352,1063.55053 1519.12454,1056.22263 1533.70603,1042.22368 C1540.56549,1035.63474 1549.27331,1033.58211 1558.8437,1035.86053 C1579.29887,1040.66368 1587.69863,1065.31579 1574.24669,1081.49053 C1572.39833,1083.70737 1570.26245,1085.67789 1568.10603,1087.58684 C1540.31904,1112.38263 1506.82269,1122.66632 1470.51272,1124.96526 C1445.51881,1126.50474 1420.62758,1124.88316 1395.88012,1120.71632 C1374.87045,1117.16526 1353.984,1113.18316 1333.42615,1107.51789 C1309.93146,1101.09316 1286.3957,1095.16105 1261.91522,1093.56 C1248.15522,1092.61579 1234.62113,1093.29316 1221.21027,1095.73579 C1180.91606,1103.08421 1152.77994,1127.03842 1132.6123,1161.54316 C1128.8129,1168.09105 1128.23785,1174.88526 1130.84609,1182.04895 C1133.4954,1189.41789 1137.84931,1195.69895 1142.86042,1201.56947 C1151.34233,1211.40158 1161.24131,1219.63263 1171.73588,1227.14526 C1172.94758,1227.98684 1174.26197,1228.62316 1175.67904,1229.46474 C1176.89075,1227.22737 1177.89707,1225.40053 1178.9034,1223.57368 C1184.92084,1212.71526 1192.23212,1202.88316 1201.14531,1194.22105 C1221.888,1174.08474 1247.06675,1164.08842 1275.61361,1161.89211 C1284.48573,1161.19421 1292.49528,1168.15263 1293.15248,1176.69158 C1293.83021,1186.21579 1287.75116,1193.52316 1278.28346,1194.48789 C1276.02436,1194.69316 1273.72418,1195.12421 1271.44454,1195.41158 C1253.45385,1197.32053 1237.86603,1204.60737 1224.74269,1217.02579 C1215.8911,1225.44158 1209.11379,1235.31474 1203.93839,1246.95316 M0,859.539474 L0,848.024211 C0.78041791,846.977368 1.76620896,846.033158 2.21802985,844.842632 C7.76310448,831.603158 17.0459701,825.363158 31.3810149,826.102105 C42.6970746,826.717895 54.0131343,827.826316 65.2675821,828.811579 C80.9375522,830.207368 96.6691343,831.685263 112.339104,833.101579 C122.484537,834.025263 132.62997,834.866842 142.754866,835.790526 C158.055164,837.165789 173.355463,838.623158 188.635224,839.977895 C198.98603,840.922105 209.316299,841.743158 219.646567,842.646316 C235.152239,844.042105 250.637373,845.540526 266.122507,846.936316 C276.288478,847.818947 286.43391,848.598947 296.558806,849.543158 C315.699582,851.328947 334.778746,853.217368 353.919522,854.921053 C368.870687,856.255263 383.780776,857.384211 398.711403,858.718421 C417.852179,860.463158 436.972418,862.351579 456.113194,864.137368 C472.707343,865.656316 489.363104,867.134211 506.018866,868.632632 C507.96991,868.796842 510.003104,868.632632 512.816716,868.632632 C511.481791,867.072632 510.80406,866.210526 510.044179,865.368947 C498.153075,852.108947 488.25409,837.494211 481.456239,821.011579 C465.231761,781.642105 460.877851,740.774211 467.552478,698.900526 C474.165493,657.457895 494.456358,623.671579 527.54197,597.767368 C555.328955,576.03 587.305552,563.570526 621.500179,556.201579 C626.285373,555.195789 626.182687,555.236842 626.716657,550.331053 C628.60609,533.540526 630.105313,516.667895 632.610866,499.959474 C638.299701,462.026842 648.239761,425.161579 662.821254,389.651053 C682.475463,341.557895 709.831164,298.596316 748.687761,263.455263 C749.344955,262.880526 749.796776,262.059474 750.515582,261.115263 L745.278567,259.370526 C731.087284,254.341579 717.409433,248.327368 705.559403,238.762105 C690.341254,226.487368 681.736119,210.805263 681.448597,191.079474 C681.202149,171.374211 687.856239,154.583684 703.44406,141.857368 C716.259343,131.409474 731.333731,126.770526 747.373373,124.697368 C753.575642,123.896842 759.880597,123.588947 766.452537,123.014211 C765.856955,121.166842 765.302448,119.545263 764.809552,117.903158 C758.299224,96.4736842 760.804776,76.1321053 772.346746,56.9810526 C779.226746,45.5889474 788.386388,36.4136842 799.168478,28.7368421 C819.459343,14.2863158 842.235224,6.26052632 866.65409,2.38105263 C872.137552,1.49842105 877.621015,0.759473684 883.125015,6.82121026e-13 L913.13003,6.82121026e-13 C916.498149,0.492631579 919.866269,0.985263158 923.234388,1.47789474 C943.463642,4.39263158 963.056239,9.60631579 981.93003,17.4063158 C1016.78185,31.7542105 1046.58149,52.7936842 1068.80287,83.6447368 C1072.35582,88.5915789 1075.62125,93.8052632 1078.9483,98.8136842 C1079.50281,98.8136842 1079.87248,98.9163158 1080.22161,98.8136842 C1108.66579,90.6442105 1137.6234,85.0815789 1167.03284,81.6126316 C1186.35845,79.3342105 1205.7046,77.9794737 1225.11236,77.7742105 C1241.97349,77.6510526 1258.91678,78.7184211 1275.77791,79.5394737 C1297.46531,80.6068421 1318.94734,83.85 1340.224,88.0578947 C1393.06651,98.4852632 1443.34185,116.261053 1491.02949,141.344211 C1566.11391,180.857368 1629.28669,234.841579 1684.26507,298.924737 C1725.85313,347.387368 1761.15678,400.181053 1792.29134,455.848421 C1847.84478,555.093158 1889.63821,659.428421 1908.65576,772.097368 C1913.21504,799.007368 1916.99391,826.02 1917.54842,853.381579 C1917.58949,856.214211 1918.22615,859.046842 1918.59582,861.858947 L1918.59582,929.944737 C1918.22615,932.366842 1917.58949,934.809474 1917.56896,937.211053 C1917.40466,958.435263 1914.54997,979.413158 1911.34615,1000.28842 C1902.5151,1057.49526 1886.53707,1112.67 1862.89863,1165.58684 C1841.49875,1213.55684 1814.88239,1258.34526 1781.4271,1298.98737 C1777.09373,1304.32421 1772.39069,1308.92211 1765.63391,1310.99526 C1764.1963,1311.44684 1762.96406,1312.51421 1761.7729,1313.41737 C1740.88645,1329.48947 1717.90519,1341.72316 1693.38364,1351.16526 C1646.45588,1369.20789 1597.47439,1376.67947 1547.54818,1378.46526 C1526.43582,1379.14263 1505.24131,1378.54737 1484.10842,1377.56211 C1464.9471,1376.65895 1445.76525,1375.01684 1426.7477,1372.55368 C1406.41576,1369.88526 1386.26866,1366.02632 1366.05994,1362.35211 C1362.28107,1361.67474 1358.95403,1361.96211 1355.40107,1362.92684 C1315.70245,1374.05211 1275.98328,1385.05421 1236.26412,1396.07684 C1148.36442,1420.58526 1060.48525,1445.11421 972.544478,1469.47895 C968.970985,1470.46421 964.842985,1470.50526 961.187343,1469.82789 C941.594746,1466.21526 922.043224,1462.15105 902.471164,1458.37421 C873.513552,1452.81158 844.494328,1447.31053 815.475104,1441.76842 C786.106746,1436.10316 756.738388,1430.45842 727.37003,1424.85474 C698.535642,1419.31263 669.742328,1413.79105 640.928478,1408.31053 C613.634388,1403.07632 586.340299,1397.80105 559.025672,1392.56684 C532.121791,1387.37368 505.176836,1382.26263 478.272955,1377.09 C451.163701,1371.87632 424.03391,1366.66263 396.924657,1361.42842 C369.630567,1356.19421 342.336478,1350.96 315.021851,1345.70526 C284.174806,1339.77316 253.307224,1333.8 222.37803,1328.03211 C211.020896,1325.91789 203.278328,1319.96526 198.616358,1309.39421 C169.391761,1242.74526 140.002866,1176.15789 110.716657,1109.55 C74.4066866,1026.97263 38.1172537,944.313158 1.8278209,861.694737 C1.43761194,860.894211 0.616119403,860.257895 0,859.539474" id="Fill-1" fill="#231916"></path>
            <path d="M1203.93428,1246.95932 C1209.10968,1235.32089 1215.887,1225.44774 1224.75912,1217.03195 C1237.86192,1204.61353 1253.44974,1197.32668 1271.44043,1195.39721 C1273.72007,1195.13037 1276.02025,1194.69932 1278.27936,1194.47353 C1287.74706,1193.50879 1293.8261,1186.22195 1293.14837,1176.69774 C1292.49118,1168.15879 1284.48162,1161.17984 1275.6095,1161.87774 C1247.08318,1164.09458 1221.88389,1174.07037 1201.14121,1194.22721 C1192.24855,1202.88932 1184.91673,1212.72142 1178.8993,1223.55932 C1177.89297,1225.38616 1176.90718,1227.23353 1175.67494,1229.45037 C1174.2784,1228.60879 1172.94347,1227.97247 1171.75231,1227.13089 C1161.23721,1219.63879 1151.33822,1211.40774 1142.85631,1201.57563 C1137.84521,1195.70511 1133.4913,1189.40353 1130.84198,1182.05511 C1128.23374,1174.87089 1128.80879,1168.07668 1132.60819,1161.54932 C1152.77583,1127.02405 1180.91195,1103.06984 1221.20616,1095.74195 C1234.61703,1093.29932 1248.15112,1092.60142 1261.91112,1093.54563 C1286.41213,1095.14668 1309.92736,1101.09932 1333.44258,1107.52405 C1354.00043,1113.16879 1374.86634,1117.17142 1395.87601,1120.72247 C1420.62347,1124.88932 1445.53524,1126.51089 1470.50861,1124.97142 C1506.81858,1122.65195 1540.31494,1112.36826 1568.10192,1087.57247 C1570.25834,1085.68405 1572.39422,1083.71353 1574.24258,1081.47616 C1587.71506,1065.30142 1579.29476,1040.64932 1558.83959,1035.86668 C1549.26921,1033.56774 1540.58192,1035.64089 1533.72246,1042.20932 C1519.14097,1056.22879 1501.49941,1063.53616 1481.96843,1066.63563 C1469.31744,1068.60616 1456.50216,1069.77616 1443.56365,1068.483 C1434.0138,1067.45668 1424.40234,1067.37458 1414.9141,1065.91721 C1398.83339,1063.45405 1382.77321,1060.74458 1366.87733,1057.23458 C1348.5375,1053.19089 1330.50574,1047.99774 1312.24807,1043.70774 C1295.59231,1039.72563 1278.6901,1037.77563 1261.60306,1036.70826 C1250.96473,1036.03089 1240.42909,1036.37984 1229.95506,1037.30353 C1192.10479,1040.64932 1157.97177,1053.68353 1128.64449,1078.35616 C1110.03768,1093.99721 1094.94276,1112.61458 1083.07219,1133.73616 C1069.62025,1157.62879 1069.00413,1182.34247 1079.74515,1207.42563 C1080.5461,1209.37563 1081.44974,1211.32563 1082.31231,1213.23458 C1082.35339,1213.35774 1082.23016,1213.58353 1082.12747,1214.21984 C1077.36282,1213.953 1072.49547,1213.74774 1067.60759,1213.33721 C1055.59327,1212.31089 1043.5584,1211.20247 1031.54407,1210.09405 C1020.47446,1209.06774 1009.40485,1207.95932 998.294161,1206.99458 C988.189803,1206.07089 978.04437,1205.29089 967.919475,1204.44932 C955.864072,1203.34089 943.849743,1202.17089 931.835415,1201.16511 C921.689982,1200.28247 911.565087,1199.48195 901.419654,1198.66089 C895.094161,1198.16826 888.789206,1197.73721 882.463713,1197.26511 C878.931296,1196.99826 876.733803,1195.33563 875.090818,1191.96932 C829.046161,1097.97932 782.919355,1004.03037 736.792549,910.040368 C735.437087,907.289842 734.102161,904.457211 733.301206,901.542474 C729.501803,887.379316 716.440072,880.030895 704.590042,880.174579 C672.88043,880.585105 641.910161,875.720368 611.946221,865.149316 C594.263594,858.888789 577.813206,850.308789 563.3344,838.177737 C542.756012,820.915105 530.515773,798.931421 525.360907,772.719316 C522.814281,759.849316 521.171296,746.876684 521.128986,733.821947 C520.965922,690.901421 537.1904,656.499316 574.814758,633.735632 C594.75649,621.645632 616.505504,614.379316 639.425146,610.499842 C645.463116,609.473526 651.562699,608.898789 657.662281,608.200895 C671.175833,606.599842 681.547176,594.817737 682.20437,580.367211 C682.676728,569.426684 682.676728,558.445105 683.662519,547.566158 C689.741564,480.773526 705.760669,416.957211 741.68043,359.421947 C765.421564,321.407211 796.699893,291.438789 836.994101,271.199842 C848.228012,265.534579 854.163296,254.594053 852.992669,242.894053 C851.822042,231.522474 843.997325,221.813526 832.927713,218.590895 C829.456907,217.605632 825.780728,217.174579 822.145624,216.887211 C801.649385,215.204053 781.399594,211.981421 761.950758,205.105105 C755.460967,202.847211 749.422997,199.398789 743.261803,196.299316 C741.762579,195.539842 740.448191,194.287737 739.339176,192.953526 C736.792549,189.895105 737.449743,185.892474 741.351833,184.476158 C746.691534,182.567211 752.359833,180.678789 757.987057,180.391421 C790.189564,178.749316 820.995534,185.091947 850.466579,197.920895 C858.517206,201.410368 866.341922,203.339842 874.905982,200.076158 C885.831833,195.909316 892.260012,187.945105 893.512788,176.532474 C894.786101,164.586158 889.918758,155.020895 879.444728,148.945105 C871.989684,144.593526 864.041743,141.145105 856.504549,136.855105 C845.94837,130.861421 835.946699,123.985105 827.854997,114.809842 C824.938699,111.546158 822.33046,107.851421 820.215116,104.013 C816.682699,97.5472105 817.072907,90.9172105 821.71434,85.0877368 C824.671713,81.393 828.121982,77.9445789 831.88031,75.0298421 C842.929385,66.5524737 855.847355,62.1393158 869.258221,59.2656316 C920.149684,48.3045789 981.576788,71.0066842 1012.54706,104.218263 C1023.12377,115.630895 1031.56461,128.234053 1036.55518,143.156684 C1040.55995,155.082474 1050.08927,161.835632 1063.17153,162.554053 C1066.86825,162.759316 1070.81141,161.486684 1074.34383,160.214053 C1099.52258,151.059316 1125.42013,145.024579 1151.79004,140.816684 C1170.95136,137.737737 1190.21536,136.075105 1209.58204,134.843526 C1229.44162,133.591421 1249.21906,134.001947 1268.95541,135.479842 C1367.71936,142.807737 1456.37894,177.271421 1535.6735,236.202474 C1584.67553,272.575105 1626.83864,315.824053 1664.23709,363.896684 C1706.54395,418.250368 1741.53953,477.160895 1771.97583,538.821947 C1799.68067,594.940895 1822.29225,652.989316 1838.22921,713.583 C1846.85488,746.486684 1853.42682,779.800895 1857.53428,813.587211 C1860.30682,836.494579 1861.90873,859.463526 1862.42216,882.555632 C1864.47589,979.686158 1845.31458,1072.25984 1803.08986,1159.90721 C1788.61106,1189.91668 1771.66777,1218.48932 1751.66443,1245.19405 C1743.51112,1256.05247 1732.95494,1264.46826 1722.07016,1272.35037 C1699.60234,1288.73037 1674.34144,1299.30142 1647.7867,1306.87563 C1627.68067,1312.60247 1607.12282,1316.19458 1586.33906,1318.84247 C1554.75267,1322.86563 1523.04306,1322.86563 1491.37452,1321.71616 C1472.45965,1321.03879 1453.54479,1318.51405 1434.71207,1316.44089 C1400.35315,1312.52037 1366.61034,1305.54142 1333.23721,1296.67405 C1290.66336,1285.36405 1249.36282,1270.64668 1210.13655,1250.42826 C1208.10336,1249.36089 1206.15231,1248.21142 1203.93428,1246.95932" id="Fill-3" fill="#FFF000"></path>
            <path d="M1256.0395,1332.13121 C1164.03233,1357.707 1073.23687,1382.95437 981.886901,1408.32489 C958.6592,1357.74805 935.616334,1307.62279 912.18326,1256.57384 C919.268633,1257.04595 925.470901,1257.43595 931.693707,1258.01068 C937.79329,1258.52384 943.872334,1259.28332 949.992454,1259.79647 C967.202722,1261.35647 984.371916,1262.89595 1001.58219,1264.35332 C1017.08786,1265.667 1032.59353,1266.79595 1048.05813,1268.17121 C1063.33789,1269.48489 1078.63819,1271.00384 1093.91795,1272.35858 C1104.41251,1273.30279 1114.94816,1274.14437 1125.46326,1274.96542 C1130.63866,1275.37595 1135.81407,1275.68384 1140.94839,1276.25858 C1142.61192,1276.46384 1144.33705,1277.14121 1145.69251,1278.04437 C1178.79866,1300.06911 1214.65681,1316.51068 1251.84989,1330.32489 C1252.91783,1330.71489 1253.92416,1331.20753 1256.0395,1332.13121" id="Fill-5" fill="#DBDCDC"></path>
            <path d="M385.690746,1112.11579 C381.46006,1107.02526 376.325731,1104.09 369.425194,1103.78211 C363.551522,1103.47421 357.677851,1102.22211 351.886328,1101.09316 C349.996896,1100.68263 348.312836,1099.26632 346.21803,1098.13737 C349.319164,1090.68632 356.568836,1087.83316 360.861134,1081.90105 C358.129672,1075.64053 356.425075,1069.07211 356.425075,1062.03158 C356.404537,1048.54579 364.147104,1038.34421 380.535881,1037.48211 C400.600836,1036.41474 417.646806,1044.05053 432.413134,1057.16684 C439.519045,1063.44789 445.166806,1070.94 450.239522,1078.96579 C456.503403,1088.92105 458.51606,1099.51263 455.743522,1110.92526 C455.435463,1112.38263 455.065791,1113.86053 454.61397,1115.66684 C455.928358,1116.30316 457.037373,1117.02158 458.208,1117.45263 C470.838448,1121.90684 483.489433,1126.44316 496.222567,1130.71263 C500.165731,1132.06737 504.396418,1132.64211 508.483343,1133.62737 C515.630328,1135.41316 521.894209,1131.36947 523.701493,1124.78053 C524.831045,1120.57263 526.843701,1117.00105 529.924299,1113.94263 C534.11391,1109.79632 537.502567,1110.06316 540.850149,1114.78421 C541.548418,1115.72842 542.082388,1116.73421 542.595821,1117.76053 C550.666985,1134.16105 558.224716,1150.74632 564.118925,1168.05 C565.289552,1171.47789 566.254806,1175.02895 566.501254,1178.64158 C567.178985,1189.58211 562.147343,1197.91579 553.295761,1203.97105 C544.711164,1209.84158 534.812179,1212.57158 524.666746,1213.49526 C482.976,1217.33368 444.776597,1207.31684 410.048,1183.99895 C398.875701,1176.52737 389.223164,1167.49579 383.637015,1154.97474 C379.344716,1145.28632 377.003463,1135.20789 380.104597,1124.71895 C381.295761,1120.55211 383.59594,1116.69316 385.690746,1112.11579" id="Fill-7" fill="#FFF000"></path>
            <path d="M1360.43066,656.727158 C1338.80487,676.432421 1324.96272,701.330842 1317.89789,730.683474 C1316.72726,735.507158 1315.86469,740.412947 1314.81729,745.708737 C1309.82672,745.708737 1285.59269,755.417684 1277.68583,758.229789 C1249.05681,768.451895 1219.58577,775.287158 1189.51914,779.741368 C1166.08607,783.148737 1142.5503,784.831895 1118.91186,785.550316 C1103.32404,786.042947 1087.79783,786.432947 1072.23054,786.679263 C1059.64117,786.925579 1047.03126,787.212947 1034.44189,786.925579 C1008.11305,786.268737 981.804752,785.488737 955.496454,784.236632 C935.2672,783.271895 915.037946,781.978737 894.849767,779.967158 C868.849528,777.380842 842.931439,774.322421 817.033887,770.915053 C779.491678,766.009263 742.31914,759.235579 705.557349,750.204 C694.097528,747.371368 682.658245,744.456632 672.430663,738.175579 C662.552215,732.038211 654.932872,724.135579 652.304096,712.332947 C647.888573,692.484 662.367379,671.157158 682.535021,667.729263 C696.212872,665.430316 708.288812,669.761368 719.728096,676.678737 C720.220991,676.986632 720.775499,677.232947 721.186245,677.622947 C728.230543,684.622421 737.287499,685.279263 746.44714,686.223474 C761.336693,687.824526 776.205707,689.815579 791.033648,691.724526 C807.627797,693.879789 824.139797,696.219789 840.713409,698.272421 C856.239618,700.242947 871.786364,702.151895 887.374185,703.814526 C897.478543,704.922947 907.623976,705.559263 917.789946,706.400842 C922.985887,706.811368 927.278185,704.943474 931.118663,701.433474 C950.93717,683.165053 972.4192,667.318737 996.694304,655.413474 C1022.2838,642.789789 1049.20821,635.564526 1077.77562,634.661368 C1112.70959,633.532421 1145.48714,641.989263 1176.74493,657.035053 C1199.72619,668.098737 1220.77693,682.077158 1239.56857,699.442421 C1245.89407,705.271895 1255.75198,704.779263 1261.99532,698.580316 C1263.04272,697.554 1264.64463,696.753474 1266.08224,696.548211 C1301.20105,692.217158 1332.25347,678.608211 1358.84929,655.290316 L1360.43066,656.727158 Z" id="Fill-9" fill="#F29700"></path>
            <path d="M1166.00802,495.082421 C1165.69996,535.827158 1198.49805,569.346632 1239.24408,570.229263 C1281.32504,571.152947 1315.7045,537.592421 1315.93155,496.211368 C1316.15632,453.927158 1282.80373,420.243474 1241.11298,420.243474 C1199.62761,420.243474 1166.00802,453.701368 1166.00802,495.082421 M1385.01793,526.980316 C1384.5045,563.701895 1372.16158,595.722947 1346.81853,622.427684 C1323.93996,646.546105 1295.76277,660.360316 1262.86199,664.711895 C1260.56181,664.999263 1258.26164,665.060842 1255.98199,665.368737 C1251.56647,665.943474 1248.1162,664.629789 1244.46056,661.797158 C1212.11429,636.631895 1176.27668,618.363474 1136.20838,608.777684 C1135.03776,608.469789 1133.76444,607.587158 1133.06617,606.601895 C1119.75799,587.635579 1111.52253,566.678211 1108.91429,543.606632 C1104.78629,507.377684 1113.30928,474.289263 1134.97614,445.039263 C1157.64934,414.455053 1188.04456,396.063474 1225.77161,390.254526 C1296.85125,379.272947 1363.90558,424.882421 1381.05423,494.158737 C1383.72408,504.935053 1384.9974,515.875579 1385.01793,526.980316" id="Fill-11" fill="#FEFEFE"></path>
            <path d="M832.699749,460.746 C817.78966,498.329684 823.724943,530.987053 856.440884,556.111263 C880.46954,574.584947 913.883749,574.954421 939.699152,558.923368 C963.953719,543.877579 980.301421,514.155474 973.380346,479.117053 C976.87169,479.527579 980.239809,479.897053 983.607928,480.307579 C1002.07097,482.750211 1020.53402,485.151789 1039.0176,487.656 C1045.24041,488.497579 1045.30202,488.559158 1046.65748,494.655474 C1056.12518,536.508632 1048.23885,574.831263 1023.20387,609.623368 C1022.52614,610.567579 1021.43766,611.450211 1020.36972,611.799158 C985.107152,622.513895 953.952048,640.638632 925.528406,663.771789 C924.481003,664.613368 922.961242,665.229158 921.626316,665.290737 C886.261063,667.281789 854.263928,657.962842 826.415331,635.897053 C798.279212,613.667053 781.027869,584.704421 775.277421,549.234947 C770.040406,517.008632 775.770316,486.609158 791.809958,458.159684 C792.836824,456.271263 793.884227,455.655474 796.061182,455.963368 C808.321958,457.667053 820.582734,459.186 832.699749,460.746" id="Fill-13" fill="#FEFEFE"></path>
            <path d="M798.763893,800.731579 C807.471713,801.963158 815.52234,803.133158 823.593504,804.138947 C837.435654,805.863158 851.236728,807.628421 865.078878,809.065263 C880.646161,810.707368 896.254519,812.185263 911.84234,813.478421 C924.020967,814.484211 936.158519,815.387368 948.357684,815.941579 C971.708609,816.947368 995.038997,817.891579 1018.38992,818.384211 C1038.55756,818.794737 1058.74574,818.856316 1078.93392,818.630526 C1096.90407,818.384211 1114.89476,817.665789 1132.8033,816.967895 C1160.48759,815.859474 1188.00759,813.006316 1215.199,807.854211 C1248.30515,801.593684 1280.63088,792.746842 1311.53953,779.096842 C1312.01189,778.912105 1312.54586,778.768421 1313.47004,778.44 C1314.86658,799.171579 1320.69918,818.322632 1331.70718,836.201053 C1326.63446,837.945789 1321.74658,839.690526 1316.8587,841.353158 C1284.26598,852.293684 1250.85177,860.175789 1216.88306,865.676842 C1191.72485,869.741053 1166.46395,872.573684 1141.03876,874.277368 C1113.88843,876.165789 1086.69703,877.11 1059.50562,876.309474 C1035.96986,875.570526 1012.47518,874.133684 989.001027,872.532632 C960.721146,870.541579 932.626101,866.846842 904.695355,862.002632 C881.734639,858 858.691773,854.120526 836.798997,845.827895 C830.165445,843.364737 823.839952,839.936842 817.945743,836.077895 C807.471713,829.263158 803.097266,818.322632 800.16043,806.745789 C799.708609,804.898421 799.297863,803.030526 798.763893,800.731579" id="Fill-15" fill="#F29700"></path>
            <path d="M919.461684,495.183 C919.461684,505.897737 910.7744,514.724053 900.136072,514.785632 C889.395057,514.867737 880.461325,505.938789 880.502259,495.183 C880.543475,484.529842 889.374519,475.785632 900.012848,475.785632 C910.692251,475.826684 919.461684,484.509316 919.461684,495.183" id="Fill-17" fill="#FEFEFE"></path>
            <path d="M1260.3318,495.183 C1260.29072,484.427211 1251.72666,475.785632 1240.98565,475.785632 C1230.32678,475.785632 1221.53667,484.529842 1221.53667,495.224053 C1221.49574,506.041421 1230.32678,514.867737 1241.08833,514.785632 C1251.80881,514.724053 1260.3318,506.020895 1260.3318,495.183 M1166.00392,495.080368 C1166.00392,453.699316 1199.6235,420.241421 1241.10887,420.261938 C1282.79962,420.261938 1316.15221,453.925105 1315.92745,496.209316 C1315.70039,537.590368 1281.32093,571.150895 1239.26051,570.227211 C1198.49395,569.344579 1165.71639,535.825105 1166.00392,495.080368" id="Fill-19" fill="#231916"></path>
            <path d="M1260.3318,495.183 C1260.3318,506.020895 1251.80881,514.724053 1241.08833,514.785632 C1230.32678,514.867737 1221.49574,506.041421 1221.53667,495.224053 C1221.53667,484.529842 1230.32678,475.785632 1240.98565,475.785632 C1251.72666,475.785632 1260.29072,484.427211 1260.3318,495.183" id="Fill-21" fill="#FEFEFE"></path>
            <path d="M1092.52346,602.806579 C1087.82042,589.177105 1083.2406,575.752895 1078.96884,563.293421 C1077.2437,569.061316 1075.47749,576.019737 1073.1157,582.772895 C1070.75391,589.608158 1067.87869,596.238158 1065.24991,602.806579 L1092.52346,602.806579 Z M919.455522,495.187105 C919.455522,484.513421 910.68609,475.810263 900.006687,475.789737 C889.368358,475.789737 880.557851,484.533947 880.496098,495.187105 C880.455164,505.942895 889.388896,514.871842 900.12991,514.789737 C910.768239,514.728158 919.455522,505.901842 919.455522,495.187105 L919.455522,495.187105 Z M1066.8929,408.504474 C1066.8929,409.838684 1066.85182,410.495526 1066.8929,411.172895 C1068.06352,424.453421 1069.17254,437.733947 1070.3637,450.993947 C1070.87713,456.720789 1070.89767,462.591316 1072.21206,468.133421 C1074.12203,476.282368 1076.99725,484.226053 1079.19475,491.369211 C1081.63869,483.589737 1083.91833,474.783947 1087.16322,466.327105 C1090.40812,457.767632 1094.65934,449.557105 1098.52036,440.997632 C1088.29278,430.488158 1077.79821,419.711842 1066.8929,408.504474 L1066.8929,408.504474 Z M798.757731,800.741842 C799.312239,803.040789 799.702448,804.908684 800.174806,806.756053 C803.091104,818.332895 807.465552,829.252895 817.939582,836.067632 C823.833791,839.947105 830.179821,843.375 836.792836,845.838158 C858.685612,854.110263 881.728478,858.010263 904.689194,862.012895 C932.61994,866.836579 960.714985,870.551842 988.994866,872.542895 C1012.48955,874.143947 1035.9637,875.580789 1059.52,876.299211 C1086.69087,877.099737 1113.88227,876.155526 1141.0326,874.287632 C1166.47833,872.583947 1191.71869,869.751316 1216.89743,865.687105 C1250.84561,860.165526 1284.25982,852.283421 1316.85254,841.363421 C1321.74042,839.700789 1326.6283,837.956053 1331.70101,836.190789 C1320.69301,818.332895 1314.86042,799.161316 1313.46388,778.450263 C1312.5397,778.758158 1312.02627,778.901842 1311.53337,779.107105 C1280.62472,792.757105 1248.29899,801.603947 1215.21337,807.843947 C1188.00143,812.996053 1160.50197,815.869737 1132.79713,816.978158 C1114.8886,817.676053 1096.89791,818.394474 1078.92776,818.640789 C1058.73958,818.846053 1038.5514,818.784474 1018.4043,818.394474 C995.032836,817.901842 971.702448,816.957632 948.351522,815.951842 C936.172896,815.377105 924.014806,814.494474 911.836179,813.488684 C896.248358,812.175 880.660537,810.717632 865.072716,809.075526 C851.230567,807.638684 837.429493,805.873421 823.587343,804.149211 C815.536716,803.143421 807.465552,801.952895 798.757731,800.741842 L798.757731,800.741842 Z M832.70591,460.743947 C820.588896,459.183947 808.307582,457.665 796.046806,455.961316 C793.890388,455.653421 792.822448,456.269211 791.795582,458.157632 C775.75594,486.607105 770.046567,517.006579 775.283582,549.232895 C781.03403,584.702368 798.285373,613.665 826.421493,635.895 C854.249552,657.981316 886.267224,667.279737 921.632478,665.288684 C922.946866,665.227105 924.466627,664.611316 925.51403,663.769737 C953.958209,640.636579 985.113313,622.511842 1020.35534,611.797105 C1021.44382,611.448158 1022.5323,610.565526 1023.21003,609.621316 C1048.24501,574.829211 1056.13134,536.527105 1046.66364,494.653421 C1045.28764,488.577632 1045.22603,488.495526 1039.02376,487.653947 C1020.54018,485.170263 1002.07713,482.748158 983.593552,480.305526 C980.225433,479.895 976.857313,479.525526 973.36597,479.115 C980.287045,514.153421 963.939343,543.875526 939.705313,558.921316 C913.88991,574.972895 880.475701,574.582895 856.447045,556.129737 C823.710567,530.985 817.795821,498.327632 832.70591,460.743947 L832.70591,460.743947 Z M1385.01588,526.982368 C1384.99534,515.877632 1383.72203,504.937105 1381.05218,494.160789 C1363.90352,424.884474 1296.84919,379.275 1225.76955,390.256579 C1188.04251,396.065526 1157.64728,414.457105 1134.97409,445.041316 C1113.30722,474.291316 1104.78424,507.379737 1108.91224,543.608684 C1111.52048,566.680263 1119.75594,587.637632 1133.06412,606.603947 C1133.76239,607.589211 1135.0357,608.471842 1136.20633,608.779737 C1176.27463,618.365526 1212.11224,636.613421 1244.45851,661.799211 C1248.11415,664.631842 1251.56442,665.945526 1255.97994,665.370789 C1258.25958,665.062895 1260.5803,665.001316 1262.85994,664.713947 C1295.76072,660.362368 1323.95845,646.548158 1346.81648,622.429737 C1372.15952,595.725 1384.50245,563.703947 1385.01588,526.982368 L1385.01588,526.982368 Z M1565.47725,933.095526 L1554.51033,933.095526 C1553.87367,932.931316 1553.27809,932.685 1552.6209,932.582368 C1540.03152,931.207105 1527.38054,930.180789 1514.83224,928.497632 C1487.41493,924.782368 1460.53158,918.603947 1434.38758,909.428684 C1409.22937,900.602368 1385.44716,889.128158 1364.47857,872.460789 C1360.14519,869.012368 1356.05827,865.256053 1352.15618,861.889737 C1349.5274,863.162368 1347.18615,864.517105 1344.74221,865.461316 C1339.52573,867.431842 1334.26818,869.217632 1328.99009,871.023947 C1277.03069,888.635526 1223.53099,899.042368 1168.98388,904.071316 C1145.28382,906.226579 1121.46054,907.683947 1097.67833,908.032895 C1071.63701,908.484474 1045.55463,908.012368 1019.55439,906.657632 C994.272955,905.302895 968.92991,903.127105 943.833313,899.925 C918.161672,896.640789 892.613254,892.022368 867.146985,887.301316 C850.470687,884.242895 834.040836,879.829737 818.370866,873.076579 C797.299582,863.921842 781.013493,849.840789 773.312,827.672368 C769.984955,818.004474 767.951761,807.885 765.507821,797.929737 C765.035463,796.061842 764.357731,795.076579 762.324537,794.666053 C742.115821,790.581316 721.886567,786.558158 701.801075,782.124474 C687.527642,778.983947 673.439045,775.227632 660.48,768.228158 C641.955343,758.088158 628.154269,743.925 622.034149,723.275526 C620.88406,719.478158 620.329552,715.475526 619.487522,711.555 L619.487522,698.295 C619.631284,698.007632 619.918806,697.658684 619.939343,697.330263 C620.822448,688.668158 623.533373,680.539737 627.517612,672.760263 C641.072239,646.507105 670.974567,631.358684 699.973254,635.751316 C715.088716,638.091316 728.622806,643.961842 741.232716,652.439211 C742.280119,653.137105 743.635582,653.670789 744.867821,653.835 C761.544119,655.928684 778.220418,657.981316 794.917254,659.992895 C796.827224,660.218684 798.696119,660.526579 800.60609,660.772895 C802.413373,660.998684 804.220657,661.142368 806.726209,661.388684 C774.934448,635.607632 754.314985,603.627632 745.56609,564.463421 C736.858269,525.381316 741.664,487.695 759.01803,451.425 C758.155463,451.219737 757.518806,450.993947 756.861612,450.932368 C743.450746,449.167105 730.019343,447.442895 716.567403,445.677632 C692.990567,442.598684 669.372657,439.560789 645.775284,436.461316 C638.176478,435.476053 633.822567,429.051316 635.424478,421.456579 C641.113313,394.259211 646.761075,367.041316 652.429373,339.802895 C654.195582,331.305 659.350448,327.774474 667.976119,328.698158 C679.374328,329.970789 690.772537,330.915 702.129672,332.002895 C715.232478,333.234474 728.355821,334.527632 741.43809,335.738684 C754.540896,337.011316 767.643701,338.242895 780.746507,339.474474 C793.746627,340.685526 806.787821,341.896579 819.78794,343.128158 C833.342567,344.421316 846.917731,345.735 860.492896,347.007632 C873.328716,348.198158 886.123463,349.409211 898.918209,350.620263 C914.341731,352.098158 929.724179,353.576053 945.127164,355.074474 C960.13994,356.470263 975.173254,357.845526 990.206567,359.282368 C1005.856,360.739737 1021.54651,362.217632 1037.25755,363.757105 C1043.27499,364.352368 1049.31296,364.845 1055.28931,365.748158 C1056.97337,366.015 1057.83594,365.809737 1058.92442,364.598684 C1080.77612,340.418684 1103.42878,316.998158 1127.25206,294.727105 C1147.21433,276.089211 1167.81325,258.210789 1190.17839,242.446579 C1205.10901,231.937105 1220.59415,222.269211 1238.05087,216.378158 C1243.71916,214.448684 1249.67499,213.422368 1255.52812,211.985526 C1260.51869,211.985526 1272.04012,212.355 1272.77946,212.396053 C1289.90758,213.709737 1306.50173,217.732895 1322.86997,222.720789 C1376.20537,238.936579 1426.56287,262.213421 1475.97564,287.707105 C1483.53337,291.607105 1484.704,301.295526 1478.62496,307.227632 C1476.75606,309.013421 1474.80501,310.737632 1472.89504,312.461842 C1451.80322,332.023421 1430.75248,351.564474 1409.64012,371.064474 C1405.03976,375.333947 1400.15188,375.785526 1394.58627,373.055526 C1377.82782,364.762895 1361.15152,356.265 1344.16716,348.444474 C1326.56669,340.398158 1308.53493,333.378158 1289.62006,328.780263 C1279.5157,326.337632 1270.60251,327.158684 1262.22328,333.727105 C1252.67343,341.137105 1242.75391,348.116053 1233.01922,355.300263 C1232.34149,355.813421 1231.72537,356.408684 1230.6369,357.352895 C1231.88967,357.311842 1232.46472,357.311842 1233.03976,357.229737 C1248.66866,355.916053 1264.15379,356.778158 1279.49516,359.918684 C1319.70722,368.047105 1353.18304,387.772895 1378.77254,419.773421 C1413.00824,462.591316 1424.16,511.300263 1412.6591,564.791842 C1404.93707,600.836053 1386.5151,630.968684 1358.85134,655.292368 C1332.25552,678.610263 1301.2031,692.198684 1266.0843,696.550263 C1264.64669,696.755526 1263.04478,697.556053 1261.99737,698.582368 C1255.75403,704.781316 1245.89612,705.273947 1239.57063,699.444474 C1220.77899,682.079211 1199.72824,668.100789 1176.74699,657.037105 C1145.48919,641.991316 1112.71164,633.534474 1077.77767,634.663421 C1049.21027,635.566579 1022.28585,642.791842 996.696358,655.415526 C972.421254,667.320789 950.918687,683.167105 931.120716,701.435526 C927.280239,704.945526 922.98794,706.813421 917.792,706.402895 C907.62603,705.561316 897.480597,704.925 887.376239,703.816579 C871.788418,702.153947 856.241672,700.245 840.715463,698.274474 C824.141851,696.221842 807.629851,693.881842 791.035701,691.726579 C776.207761,689.817632 761.338746,687.826579 746.428657,686.225526 C737.289552,685.281316 728.232597,684.624474 721.188299,677.625 C720.777552,677.235 720.223045,676.988684 719.730149,676.680789 C708.290866,669.763421 696.214925,665.432368 682.537075,667.731316 C662.369433,671.159211 647.890627,692.486053 652.285612,712.335 C654.934925,724.137632 662.533731,732.040263 672.432716,738.177632 C682.660299,744.458684 694.099582,747.373421 705.559403,750.206053 C742.321194,759.237632 779.493731,766.011316 817.03594,770.917105 C842.933493,774.324474 868.851582,777.382895 894.851821,779.969211 C915.019463,781.980789 935.269254,783.273947 955.498507,784.238684 C981.806806,785.490789 1008.1151,786.270789 1034.44394,786.927632 C1047.03331,787.215 1059.62269,786.927632 1072.2326,786.681316 C1087.79988,786.435 1103.32609,786.045 1118.91391,785.552368 C1142.55236,784.833947 1166.08812,783.150789 1189.52119,779.743421 C1219.58782,775.289211 1249.05887,768.453947 1277.68788,758.231842 C1285.59475,755.419737 1309.82878,745.710789 1314.81934,745.710789 C1315.86675,740.415 1316.72931,735.509211 1317.89994,730.665 C1326.38185,695.462368 1344.63952,666.643421 1374.39809,645.521842 C1399.86436,627.479211 1428.63713,618.037105 1459.07343,612.946579 C1479.89827,609.457105 1500.86687,608.348684 1521.97922,608.779737 C1541.38699,609.169737 1560.69206,610.791316 1579.85337,614.055 C1588.80764,615.594474 1594.98937,623.722895 1593.55176,632.015526 C1591.82663,641.621842 1583.69385,647.184474 1574.22615,645.686053 C1564.24501,644.146579 1554.24334,642.771316 1544.22113,641.888684 C1525.53218,640.287632 1506.82269,640.123421 1488.09266,641.683421 C1467.98663,643.325526 1448.31188,646.691842 1429.23272,653.342368 C1409.00346,660.403421 1390.60203,670.563947 1376.04107,686.512895 C1353.14197,711.596053 1344.45469,741.790263 1345.41994,775.063421 C1346.11821,798.483947 1355.40107,818.538158 1371.52287,835.492895 C1382.61301,847.192895 1395.63367,856.347632 1409.78388,863.819211 C1447.8806,883.935 1489.11952,893.171842 1531.42639,898.406053 C1542.20848,899.760789 1553.05218,900.253421 1563.85481,901.259211 C1571.14555,901.936579 1576.60848,907.109211 1578.00501,914.355 C1579.25779,920.820789 1575.91021,927.861316 1569.89278,931.125 C1568.49624,931.925526 1566.95594,932.459211 1565.47725,933.095526 L1565.47725,933.095526 Z" id="Fill-23" fill="#231916"></path>
        </g>
    </g>
</svg>
